<mxfile host="app.diagrams.net" agent="Mozilla/5.0 (Windows NT 10.0; Win64; x64) AppleWebKit/537.36 (KHTML, like Gecko) Chrome/141.0.0.0 Safari/537.36" version="28.2.8" pages="3">
  <diagram name="s1" id="Ot5_uCeTS7CsZJFKDUpe">
    <mxGraphModel dx="784" dy="1102" grid="1" gridSize="10" guides="1" tooltips="1" connect="1" arrows="1" fold="1" page="1" pageScale="1" pageWidth="827" pageHeight="1169" math="0" shadow="0">
      <root>
        <mxCell id="0" />
        <mxCell id="1" parent="0" />
        <mxCell id="SUVXIOvrt3MLqSDektx3-4" style="edgeStyle=orthogonalEdgeStyle;rounded=0;orthogonalLoop=1;jettySize=auto;html=1;entryX=0.5;entryY=0;entryDx=0;entryDy=0;" edge="1" parent="1" source="nz0kr8kzbRYJk31w67YK-4" target="SUVXIOvrt3MLqSDektx3-2">
          <mxGeometry relative="1" as="geometry" />
        </mxCell>
        <mxCell id="nz0kr8kzbRYJk31w67YK-4" value="Початок" style="ellipse;whiteSpace=wrap;html=1;" parent="1" vertex="1">
          <mxGeometry x="320" width="120" height="40" as="geometry" />
        </mxCell>
        <mxCell id="SUVXIOvrt3MLqSDektx3-2" value="A, B&lt;div&gt;birthday.day,&lt;/div&gt;&lt;div&gt;birthday.month,&lt;/div&gt;&lt;div&gt;birthday.year&lt;/div&gt;" style="shape=parallelogram;perimeter=parallelogramPerimeter;whiteSpace=wrap;html=1;fixedSize=1;" vertex="1" parent="1">
          <mxGeometry x="290" y="60" width="180" height="70" as="geometry" />
        </mxCell>
        <mxCell id="SUVXIOvrt3MLqSDektx3-10" style="edgeStyle=orthogonalEdgeStyle;rounded=0;orthogonalLoop=1;jettySize=auto;html=1;entryX=0.502;entryY=-0.039;entryDx=0;entryDy=0;entryPerimeter=0;" edge="1" parent="1" source="SUVXIOvrt3MLqSDektx3-6" target="SUVXIOvrt3MLqSDektx3-17">
          <mxGeometry relative="1" as="geometry">
            <mxPoint x="220" y="290" as="targetPoint" />
            <Array as="points">
              <mxPoint x="220" y="210" />
            </Array>
          </mxGeometry>
        </mxCell>
        <mxCell id="SUVXIOvrt3MLqSDektx3-16" value="True" style="edgeLabel;html=1;align=center;verticalAlign=middle;resizable=0;points=[];" vertex="1" connectable="0" parent="SUVXIOvrt3MLqSDektx3-10">
          <mxGeometry x="-0.6751" relative="1" as="geometry">
            <mxPoint as="offset" />
          </mxGeometry>
        </mxCell>
        <mxCell id="SUVXIOvrt3MLqSDektx3-6" value="A == birthday.day&lt;span style=&quot;white-space: pre;&quot;&gt;&#x9;&lt;/span&gt;" style="rhombus;whiteSpace=wrap;html=1;" vertex="1" parent="1">
          <mxGeometry x="290" y="170" width="180" height="80" as="geometry" />
        </mxCell>
        <mxCell id="SUVXIOvrt3MLqSDektx3-7" style="edgeStyle=orthogonalEdgeStyle;rounded=0;orthogonalLoop=1;jettySize=auto;html=1;entryX=0.503;entryY=-0.041;entryDx=0;entryDy=0;entryPerimeter=0;" edge="1" parent="1" source="SUVXIOvrt3MLqSDektx3-2" target="SUVXIOvrt3MLqSDektx3-6">
          <mxGeometry relative="1" as="geometry" />
        </mxCell>
        <mxCell id="hQPmsqUlZ_xyAZd371A2-1" style="edgeStyle=orthogonalEdgeStyle;rounded=0;orthogonalLoop=1;jettySize=auto;html=1;entryX=0.5;entryY=0;entryDx=0;entryDy=0;" edge="1" parent="1" source="SUVXIOvrt3MLqSDektx3-17" target="SUVXIOvrt3MLqSDektx3-28">
          <mxGeometry relative="1" as="geometry">
            <mxPoint x="380" y="290" as="targetPoint" />
          </mxGeometry>
        </mxCell>
        <mxCell id="SUVXIOvrt3MLqSDektx3-17" value="Число A == дню народження" style="shape=parallelogram;perimeter=parallelogramPerimeter;whiteSpace=wrap;html=1;fixedSize=1;" vertex="1" parent="1">
          <mxGeometry x="160" y="260" width="120" height="60" as="geometry" />
        </mxCell>
        <mxCell id="SUVXIOvrt3MLqSDektx3-23" style="edgeStyle=orthogonalEdgeStyle;rounded=0;orthogonalLoop=1;jettySize=auto;html=1;entryX=0.502;entryY=-0.039;entryDx=0;entryDy=0;entryPerimeter=0;exitX=1;exitY=0.5;exitDx=0;exitDy=0;" edge="1" parent="1" target="SUVXIOvrt3MLqSDektx3-25" source="SUVXIOvrt3MLqSDektx3-6">
          <mxGeometry relative="1" as="geometry">
            <mxPoint x="570" y="330" as="targetPoint" />
            <mxPoint x="640" y="250" as="sourcePoint" />
            <Array as="points">
              <mxPoint x="540" y="210" />
            </Array>
          </mxGeometry>
        </mxCell>
        <mxCell id="SUVXIOvrt3MLqSDektx3-24" value="False" style="edgeLabel;html=1;align=center;verticalAlign=middle;resizable=0;points=[];" vertex="1" connectable="0" parent="SUVXIOvrt3MLqSDektx3-23">
          <mxGeometry x="-0.6751" relative="1" as="geometry">
            <mxPoint as="offset" />
          </mxGeometry>
        </mxCell>
        <mxCell id="hQPmsqUlZ_xyAZd371A2-2" style="edgeStyle=orthogonalEdgeStyle;rounded=0;orthogonalLoop=1;jettySize=auto;html=1;entryX=0.5;entryY=0;entryDx=0;entryDy=0;" edge="1" parent="1" source="SUVXIOvrt3MLqSDektx3-25" target="SUVXIOvrt3MLqSDektx3-28">
          <mxGeometry relative="1" as="geometry" />
        </mxCell>
        <mxCell id="SUVXIOvrt3MLqSDektx3-25" value="Число A != дню народження" style="shape=parallelogram;perimeter=parallelogramPerimeter;whiteSpace=wrap;html=1;fixedSize=1;" vertex="1" parent="1">
          <mxGeometry x="480" y="260" width="120" height="60" as="geometry" />
        </mxCell>
        <mxCell id="SUVXIOvrt3MLqSDektx3-26" style="edgeStyle=orthogonalEdgeStyle;rounded=0;orthogonalLoop=1;jettySize=auto;html=1;entryX=0.502;entryY=-0.039;entryDx=0;entryDy=0;entryPerimeter=0;" edge="1" parent="1" source="SUVXIOvrt3MLqSDektx3-28" target="SUVXIOvrt3MLqSDektx3-29">
          <mxGeometry relative="1" as="geometry">
            <mxPoint x="220" y="440" as="targetPoint" />
            <Array as="points">
              <mxPoint x="220" y="360" />
            </Array>
          </mxGeometry>
        </mxCell>
        <mxCell id="SUVXIOvrt3MLqSDektx3-27" value="True" style="edgeLabel;html=1;align=center;verticalAlign=middle;resizable=0;points=[];" vertex="1" connectable="0" parent="SUVXIOvrt3MLqSDektx3-26">
          <mxGeometry x="-0.6751" relative="1" as="geometry">
            <mxPoint as="offset" />
          </mxGeometry>
        </mxCell>
        <mxCell id="SUVXIOvrt3MLqSDektx3-28" value="B == birthday.day&lt;span style=&quot;white-space: pre;&quot;&gt;&#x9;&lt;/span&gt;" style="rhombus;whiteSpace=wrap;html=1;" vertex="1" parent="1">
          <mxGeometry x="290" y="320" width="180" height="80" as="geometry" />
        </mxCell>
        <mxCell id="SUVXIOvrt3MLqSDektx3-29" value="Число B == дню народження" style="shape=parallelogram;perimeter=parallelogramPerimeter;whiteSpace=wrap;html=1;fixedSize=1;" vertex="1" parent="1">
          <mxGeometry x="160" y="410" width="120" height="60" as="geometry" />
        </mxCell>
        <mxCell id="SUVXIOvrt3MLqSDektx3-30" style="edgeStyle=orthogonalEdgeStyle;rounded=0;orthogonalLoop=1;jettySize=auto;html=1;entryX=0.502;entryY=-0.039;entryDx=0;entryDy=0;entryPerimeter=0;exitX=1;exitY=0.5;exitDx=0;exitDy=0;" edge="1" parent="1" source="SUVXIOvrt3MLqSDektx3-28" target="SUVXIOvrt3MLqSDektx3-32">
          <mxGeometry relative="1" as="geometry">
            <mxPoint x="570" y="480" as="targetPoint" />
            <mxPoint x="640" y="400" as="sourcePoint" />
            <Array as="points">
              <mxPoint x="540" y="360" />
            </Array>
          </mxGeometry>
        </mxCell>
        <mxCell id="SUVXIOvrt3MLqSDektx3-31" value="False" style="edgeLabel;html=1;align=center;verticalAlign=middle;resizable=0;points=[];" vertex="1" connectable="0" parent="SUVXIOvrt3MLqSDektx3-30">
          <mxGeometry x="-0.6751" relative="1" as="geometry">
            <mxPoint as="offset" />
          </mxGeometry>
        </mxCell>
        <mxCell id="SUVXIOvrt3MLqSDektx3-32" value="Число B != дню народження" style="shape=parallelogram;perimeter=parallelogramPerimeter;whiteSpace=wrap;html=1;fixedSize=1;" vertex="1" parent="1">
          <mxGeometry x="480" y="410" width="120" height="60" as="geometry" />
        </mxCell>
        <mxCell id="SUVXIOvrt3MLqSDektx3-34" style="edgeStyle=orthogonalEdgeStyle;rounded=0;orthogonalLoop=1;jettySize=auto;html=1;entryX=0.502;entryY=-0.039;entryDx=0;entryDy=0;entryPerimeter=0;" edge="1" parent="1" source="SUVXIOvrt3MLqSDektx3-37" target="SUVXIOvrt3MLqSDektx3-38">
          <mxGeometry relative="1" as="geometry">
            <mxPoint x="220" y="590" as="targetPoint" />
            <Array as="points">
              <mxPoint x="210" y="510" />
            </Array>
          </mxGeometry>
        </mxCell>
        <mxCell id="SUVXIOvrt3MLqSDektx3-35" value="True" style="edgeLabel;html=1;align=center;verticalAlign=middle;resizable=0;points=[];" vertex="1" connectable="0" parent="SUVXIOvrt3MLqSDektx3-34">
          <mxGeometry x="-0.6751" relative="1" as="geometry">
            <mxPoint as="offset" />
          </mxGeometry>
        </mxCell>
        <mxCell id="SUVXIOvrt3MLqSDektx3-37" value="A == birthday.month" style="rhombus;whiteSpace=wrap;html=1;" vertex="1" parent="1">
          <mxGeometry x="290" y="470" width="180" height="80" as="geometry" />
        </mxCell>
        <mxCell id="SUVXIOvrt3MLqSDektx3-38" value="Число A == місяцю народження" style="shape=parallelogram;perimeter=parallelogramPerimeter;whiteSpace=wrap;html=1;fixedSize=1;" vertex="1" parent="1">
          <mxGeometry x="140" y="560" width="140" height="60" as="geometry" />
        </mxCell>
        <mxCell id="SUVXIOvrt3MLqSDektx3-39" style="edgeStyle=orthogonalEdgeStyle;rounded=0;orthogonalLoop=1;jettySize=auto;html=1;entryX=0.502;entryY=-0.039;entryDx=0;entryDy=0;entryPerimeter=0;exitX=1;exitY=0.5;exitDx=0;exitDy=0;" edge="1" parent="1" source="SUVXIOvrt3MLqSDektx3-37" target="SUVXIOvrt3MLqSDektx3-41">
          <mxGeometry relative="1" as="geometry">
            <mxPoint x="570" y="630" as="targetPoint" />
            <mxPoint x="640" y="550" as="sourcePoint" />
            <Array as="points">
              <mxPoint x="550" y="510" />
            </Array>
          </mxGeometry>
        </mxCell>
        <mxCell id="SUVXIOvrt3MLqSDektx3-40" value="False" style="edgeLabel;html=1;align=center;verticalAlign=middle;resizable=0;points=[];" vertex="1" connectable="0" parent="SUVXIOvrt3MLqSDektx3-39">
          <mxGeometry x="-0.6751" relative="1" as="geometry">
            <mxPoint as="offset" />
          </mxGeometry>
        </mxCell>
        <mxCell id="SUVXIOvrt3MLqSDektx3-41" value="Число A != місяцю народження" style="shape=parallelogram;perimeter=parallelogramPerimeter;whiteSpace=wrap;html=1;fixedSize=1;" vertex="1" parent="1">
          <mxGeometry x="480" y="560" width="140" height="60" as="geometry" />
        </mxCell>
        <mxCell id="SUVXIOvrt3MLqSDektx3-42" style="edgeStyle=orthogonalEdgeStyle;rounded=0;orthogonalLoop=1;jettySize=auto;html=1;entryX=0.502;entryY=-0.039;entryDx=0;entryDy=0;entryPerimeter=0;" edge="1" parent="1" source="SUVXIOvrt3MLqSDektx3-44" target="SUVXIOvrt3MLqSDektx3-45">
          <mxGeometry relative="1" as="geometry">
            <mxPoint x="220" y="740" as="targetPoint" />
            <Array as="points">
              <mxPoint x="210" y="660" />
            </Array>
          </mxGeometry>
        </mxCell>
        <mxCell id="SUVXIOvrt3MLqSDektx3-43" value="True" style="edgeLabel;html=1;align=center;verticalAlign=middle;resizable=0;points=[];" vertex="1" connectable="0" parent="SUVXIOvrt3MLqSDektx3-42">
          <mxGeometry x="-0.6751" relative="1" as="geometry">
            <mxPoint as="offset" />
          </mxGeometry>
        </mxCell>
        <mxCell id="SUVXIOvrt3MLqSDektx3-44" value="B == birthday.month" style="rhombus;whiteSpace=wrap;html=1;" vertex="1" parent="1">
          <mxGeometry x="290" y="620" width="180" height="80" as="geometry" />
        </mxCell>
        <mxCell id="SUVXIOvrt3MLqSDektx3-45" value="Число B == місяцю народження" style="shape=parallelogram;perimeter=parallelogramPerimeter;whiteSpace=wrap;html=1;fixedSize=1;" vertex="1" parent="1">
          <mxGeometry x="140" y="710" width="140" height="60" as="geometry" />
        </mxCell>
        <mxCell id="SUVXIOvrt3MLqSDektx3-46" style="edgeStyle=orthogonalEdgeStyle;rounded=0;orthogonalLoop=1;jettySize=auto;html=1;entryX=0.502;entryY=-0.039;entryDx=0;entryDy=0;entryPerimeter=0;exitX=1;exitY=0.5;exitDx=0;exitDy=0;" edge="1" parent="1" source="SUVXIOvrt3MLqSDektx3-44" target="SUVXIOvrt3MLqSDektx3-48">
          <mxGeometry relative="1" as="geometry">
            <mxPoint x="570" y="780" as="targetPoint" />
            <mxPoint x="640" y="700" as="sourcePoint" />
            <Array as="points">
              <mxPoint x="550" y="660" />
            </Array>
          </mxGeometry>
        </mxCell>
        <mxCell id="SUVXIOvrt3MLqSDektx3-47" value="False" style="edgeLabel;html=1;align=center;verticalAlign=middle;resizable=0;points=[];" vertex="1" connectable="0" parent="SUVXIOvrt3MLqSDektx3-46">
          <mxGeometry x="-0.6751" relative="1" as="geometry">
            <mxPoint as="offset" />
          </mxGeometry>
        </mxCell>
        <mxCell id="SUVXIOvrt3MLqSDektx3-48" value="Число B != місяцю народження" style="shape=parallelogram;perimeter=parallelogramPerimeter;whiteSpace=wrap;html=1;fixedSize=1;" vertex="1" parent="1">
          <mxGeometry x="480" y="710" width="140" height="60" as="geometry" />
        </mxCell>
        <mxCell id="SUVXIOvrt3MLqSDektx3-50" style="edgeStyle=orthogonalEdgeStyle;rounded=0;orthogonalLoop=1;jettySize=auto;html=1;entryX=0.502;entryY=-0.039;entryDx=0;entryDy=0;entryPerimeter=0;" edge="1" parent="1" source="SUVXIOvrt3MLqSDektx3-53" target="SUVXIOvrt3MLqSDektx3-54">
          <mxGeometry relative="1" as="geometry">
            <mxPoint x="220" y="890" as="targetPoint" />
            <Array as="points">
              <mxPoint x="210" y="810" />
            </Array>
          </mxGeometry>
        </mxCell>
        <mxCell id="SUVXIOvrt3MLqSDektx3-51" value="True" style="edgeLabel;html=1;align=center;verticalAlign=middle;resizable=0;points=[];" vertex="1" connectable="0" parent="SUVXIOvrt3MLqSDektx3-50">
          <mxGeometry x="-0.6751" relative="1" as="geometry">
            <mxPoint as="offset" />
          </mxGeometry>
        </mxCell>
        <mxCell id="SUVXIOvrt3MLqSDektx3-53" value="A == birthday.year" style="rhombus;whiteSpace=wrap;html=1;" vertex="1" parent="1">
          <mxGeometry x="290" y="770" width="180" height="80" as="geometry" />
        </mxCell>
        <mxCell id="SUVXIOvrt3MLqSDektx3-54" value="Число A == року народження" style="shape=parallelogram;perimeter=parallelogramPerimeter;whiteSpace=wrap;html=1;fixedSize=1;" vertex="1" parent="1">
          <mxGeometry x="140" y="860" width="140" height="60" as="geometry" />
        </mxCell>
        <mxCell id="SUVXIOvrt3MLqSDektx3-55" style="edgeStyle=orthogonalEdgeStyle;rounded=0;orthogonalLoop=1;jettySize=auto;html=1;entryX=0.502;entryY=-0.039;entryDx=0;entryDy=0;entryPerimeter=0;exitX=1;exitY=0.5;exitDx=0;exitDy=0;" edge="1" parent="1" source="SUVXIOvrt3MLqSDektx3-53" target="SUVXIOvrt3MLqSDektx3-57">
          <mxGeometry relative="1" as="geometry">
            <mxPoint x="570" y="930" as="targetPoint" />
            <mxPoint x="640" y="850" as="sourcePoint" />
            <Array as="points">
              <mxPoint x="550" y="810" />
            </Array>
          </mxGeometry>
        </mxCell>
        <mxCell id="SUVXIOvrt3MLqSDektx3-56" value="False" style="edgeLabel;html=1;align=center;verticalAlign=middle;resizable=0;points=[];" vertex="1" connectable="0" parent="SUVXIOvrt3MLqSDektx3-55">
          <mxGeometry x="-0.6751" relative="1" as="geometry">
            <mxPoint as="offset" />
          </mxGeometry>
        </mxCell>
        <mxCell id="SUVXIOvrt3MLqSDektx3-57" value="Число A != року&amp;nbsp;народження" style="shape=parallelogram;perimeter=parallelogramPerimeter;whiteSpace=wrap;html=1;fixedSize=1;" vertex="1" parent="1">
          <mxGeometry x="480" y="860" width="140" height="60" as="geometry" />
        </mxCell>
        <mxCell id="SUVXIOvrt3MLqSDektx3-58" style="edgeStyle=orthogonalEdgeStyle;rounded=0;orthogonalLoop=1;jettySize=auto;html=1;entryX=0.502;entryY=-0.039;entryDx=0;entryDy=0;entryPerimeter=0;" edge="1" parent="1" source="SUVXIOvrt3MLqSDektx3-60" target="SUVXIOvrt3MLqSDektx3-61">
          <mxGeometry relative="1" as="geometry">
            <mxPoint x="220" y="1040" as="targetPoint" />
            <Array as="points">
              <mxPoint x="210" y="960" />
            </Array>
          </mxGeometry>
        </mxCell>
        <mxCell id="SUVXIOvrt3MLqSDektx3-59" value="True" style="edgeLabel;html=1;align=center;verticalAlign=middle;resizable=0;points=[];" vertex="1" connectable="0" parent="SUVXIOvrt3MLqSDektx3-58">
          <mxGeometry x="-0.6751" relative="1" as="geometry">
            <mxPoint as="offset" />
          </mxGeometry>
        </mxCell>
        <mxCell id="SUVXIOvrt3MLqSDektx3-60" value="B == birthday.year" style="rhombus;whiteSpace=wrap;html=1;" vertex="1" parent="1">
          <mxGeometry x="290" y="920" width="180" height="80" as="geometry" />
        </mxCell>
        <mxCell id="SUVXIOvrt3MLqSDektx3-61" value="Число B == року&amp;nbsp;народження" style="shape=parallelogram;perimeter=parallelogramPerimeter;whiteSpace=wrap;html=1;fixedSize=1;" vertex="1" parent="1">
          <mxGeometry x="140" y="1010" width="140" height="60" as="geometry" />
        </mxCell>
        <mxCell id="SUVXIOvrt3MLqSDektx3-62" style="edgeStyle=orthogonalEdgeStyle;rounded=0;orthogonalLoop=1;jettySize=auto;html=1;entryX=0.502;entryY=-0.039;entryDx=0;entryDy=0;entryPerimeter=0;exitX=1;exitY=0.5;exitDx=0;exitDy=0;" edge="1" parent="1" source="SUVXIOvrt3MLqSDektx3-60" target="SUVXIOvrt3MLqSDektx3-64">
          <mxGeometry relative="1" as="geometry">
            <mxPoint x="570" y="1080" as="targetPoint" />
            <mxPoint x="640" y="1000" as="sourcePoint" />
            <Array as="points">
              <mxPoint x="550" y="960" />
            </Array>
          </mxGeometry>
        </mxCell>
        <mxCell id="SUVXIOvrt3MLqSDektx3-63" value="False" style="edgeLabel;html=1;align=center;verticalAlign=middle;resizable=0;points=[];" vertex="1" connectable="0" parent="SUVXIOvrt3MLqSDektx3-62">
          <mxGeometry x="-0.6751" relative="1" as="geometry">
            <mxPoint as="offset" />
          </mxGeometry>
        </mxCell>
        <mxCell id="SUVXIOvrt3MLqSDektx3-64" value="Число B != року&amp;nbsp;народження" style="shape=parallelogram;perimeter=parallelogramPerimeter;whiteSpace=wrap;html=1;fixedSize=1;" vertex="1" parent="1">
          <mxGeometry x="480" y="1010" width="140" height="60" as="geometry" />
        </mxCell>
        <mxCell id="SUVXIOvrt3MLqSDektx3-67" value="Кінець" style="ellipse;whiteSpace=wrap;html=1;" vertex="1" parent="1">
          <mxGeometry x="320" y="1070" width="120" height="40" as="geometry" />
        </mxCell>
        <mxCell id="hQPmsqUlZ_xyAZd371A2-3" style="edgeStyle=orthogonalEdgeStyle;rounded=0;orthogonalLoop=1;jettySize=auto;html=1;entryX=0.5;entryY=0;entryDx=0;entryDy=0;" edge="1" parent="1">
          <mxGeometry relative="1" as="geometry">
            <mxPoint x="380" y="470" as="targetPoint" />
            <mxPoint x="270" y="440" as="sourcePoint" />
          </mxGeometry>
        </mxCell>
        <mxCell id="hQPmsqUlZ_xyAZd371A2-4" style="edgeStyle=orthogonalEdgeStyle;rounded=0;orthogonalLoop=1;jettySize=auto;html=1;entryX=0.5;entryY=0;entryDx=0;entryDy=0;" edge="1" parent="1">
          <mxGeometry relative="1" as="geometry">
            <mxPoint x="490" y="440" as="sourcePoint" />
            <mxPoint x="380" y="470" as="targetPoint" />
          </mxGeometry>
        </mxCell>
        <mxCell id="hQPmsqUlZ_xyAZd371A2-5" style="edgeStyle=orthogonalEdgeStyle;rounded=0;orthogonalLoop=1;jettySize=auto;html=1;entryX=0.5;entryY=0;entryDx=0;entryDy=0;" edge="1" parent="1">
          <mxGeometry relative="1" as="geometry">
            <mxPoint x="380" y="620" as="targetPoint" />
            <mxPoint x="270" y="590" as="sourcePoint" />
          </mxGeometry>
        </mxCell>
        <mxCell id="hQPmsqUlZ_xyAZd371A2-6" style="edgeStyle=orthogonalEdgeStyle;rounded=0;orthogonalLoop=1;jettySize=auto;html=1;entryX=0.5;entryY=0;entryDx=0;entryDy=0;" edge="1" parent="1">
          <mxGeometry relative="1" as="geometry">
            <mxPoint x="490" y="590" as="sourcePoint" />
            <mxPoint x="380" y="620" as="targetPoint" />
          </mxGeometry>
        </mxCell>
        <mxCell id="hQPmsqUlZ_xyAZd371A2-7" style="edgeStyle=orthogonalEdgeStyle;rounded=0;orthogonalLoop=1;jettySize=auto;html=1;entryX=0.5;entryY=0;entryDx=0;entryDy=0;" edge="1" parent="1">
          <mxGeometry relative="1" as="geometry">
            <mxPoint x="380" y="770" as="targetPoint" />
            <mxPoint x="270" y="740" as="sourcePoint" />
          </mxGeometry>
        </mxCell>
        <mxCell id="hQPmsqUlZ_xyAZd371A2-8" style="edgeStyle=orthogonalEdgeStyle;rounded=0;orthogonalLoop=1;jettySize=auto;html=1;entryX=0.5;entryY=0;entryDx=0;entryDy=0;" edge="1" parent="1">
          <mxGeometry relative="1" as="geometry">
            <mxPoint x="490" y="740" as="sourcePoint" />
            <mxPoint x="380" y="770" as="targetPoint" />
          </mxGeometry>
        </mxCell>
        <mxCell id="hQPmsqUlZ_xyAZd371A2-9" style="edgeStyle=orthogonalEdgeStyle;rounded=0;orthogonalLoop=1;jettySize=auto;html=1;entryX=0.5;entryY=0;entryDx=0;entryDy=0;" edge="1" parent="1">
          <mxGeometry relative="1" as="geometry">
            <mxPoint x="380" y="920" as="targetPoint" />
            <mxPoint x="270" y="890" as="sourcePoint" />
          </mxGeometry>
        </mxCell>
        <mxCell id="hQPmsqUlZ_xyAZd371A2-10" style="edgeStyle=orthogonalEdgeStyle;rounded=0;orthogonalLoop=1;jettySize=auto;html=1;entryX=0.5;entryY=0;entryDx=0;entryDy=0;" edge="1" parent="1">
          <mxGeometry relative="1" as="geometry">
            <mxPoint x="490" y="890" as="sourcePoint" />
            <mxPoint x="380" y="920" as="targetPoint" />
          </mxGeometry>
        </mxCell>
        <mxCell id="hQPmsqUlZ_xyAZd371A2-11" style="edgeStyle=orthogonalEdgeStyle;rounded=0;orthogonalLoop=1;jettySize=auto;html=1;entryX=0.5;entryY=0;entryDx=0;entryDy=0;" edge="1" parent="1">
          <mxGeometry relative="1" as="geometry">
            <mxPoint x="380" y="1070" as="targetPoint" />
            <mxPoint x="270" y="1040" as="sourcePoint" />
          </mxGeometry>
        </mxCell>
        <mxCell id="hQPmsqUlZ_xyAZd371A2-12" style="edgeStyle=orthogonalEdgeStyle;rounded=0;orthogonalLoop=1;jettySize=auto;html=1;entryX=0.5;entryY=0;entryDx=0;entryDy=0;" edge="1" parent="1">
          <mxGeometry relative="1" as="geometry">
            <mxPoint x="490" y="1040" as="sourcePoint" />
            <mxPoint x="380" y="1070" as="targetPoint" />
          </mxGeometry>
        </mxCell>
      </root>
    </mxGraphModel>
  </diagram>
  <diagram id="NdI6y2LrPXql3lGh5p0o" name="s2">
    <mxGraphModel dx="747" dy="1050" grid="1" gridSize="10" guides="1" tooltips="1" connect="1" arrows="1" fold="1" page="1" pageScale="1" pageWidth="827" pageHeight="1169" math="0" shadow="0">
      <root>
        <mxCell id="0" />
        <mxCell id="1" parent="0" />
        <mxCell id="xaYOfIexUENVyX_pIuQl-1" style="edgeStyle=orthogonalEdgeStyle;rounded=0;orthogonalLoop=1;jettySize=auto;html=1;entryX=0.5;entryY=0;entryDx=0;entryDy=0;" edge="1" parent="1" source="xaYOfIexUENVyX_pIuQl-2" target="xaYOfIexUENVyX_pIuQl-3">
          <mxGeometry relative="1" as="geometry" />
        </mxCell>
        <mxCell id="xaYOfIexUENVyX_pIuQl-2" value="Початок" style="ellipse;whiteSpace=wrap;html=1;" vertex="1" parent="1">
          <mxGeometry x="340" width="120" height="40" as="geometry" />
        </mxCell>
        <mxCell id="xaYOfIexUENVyX_pIuQl-5" style="edgeStyle=orthogonalEdgeStyle;rounded=0;orthogonalLoop=1;jettySize=auto;html=1;" edge="1" parent="1" source="xaYOfIexUENVyX_pIuQl-3" target="xaYOfIexUENVyX_pIuQl-4">
          <mxGeometry relative="1" as="geometry" />
        </mxCell>
        <mxCell id="xaYOfIexUENVyX_pIuQl-3" value="x1, x2, x3, x4, x5, count" style="shape=parallelogram;perimeter=parallelogramPerimeter;whiteSpace=wrap;html=1;fixedSize=1;" vertex="1" parent="1">
          <mxGeometry x="310" y="60" width="180" height="70" as="geometry" />
        </mxCell>
        <mxCell id="xaYOfIexUENVyX_pIuQl-6" style="edgeStyle=orthogonalEdgeStyle;rounded=0;orthogonalLoop=1;jettySize=auto;html=1;entryX=0.5;entryY=0;entryDx=0;entryDy=0;" edge="1" parent="1" source="xaYOfIexUENVyX_pIuQl-4" target="xaYOfIexUENVyX_pIuQl-11">
          <mxGeometry relative="1" as="geometry">
            <mxPoint x="240" y="260" as="targetPoint" />
            <Array as="points">
              <mxPoint x="240" y="210" />
            </Array>
          </mxGeometry>
        </mxCell>
        <mxCell id="xaYOfIexUENVyX_pIuQl-8" value="True" style="edgeLabel;html=1;align=center;verticalAlign=middle;resizable=0;points=[];" vertex="1" connectable="0" parent="xaYOfIexUENVyX_pIuQl-6">
          <mxGeometry x="-0.6804" relative="1" as="geometry">
            <mxPoint as="offset" />
          </mxGeometry>
        </mxCell>
        <mxCell id="z2dRrkCkyLfMmBdKckfR-26" style="edgeStyle=orthogonalEdgeStyle;rounded=0;orthogonalLoop=1;jettySize=auto;html=1;" edge="1" parent="1" source="xaYOfIexUENVyX_pIuQl-4">
          <mxGeometry relative="1" as="geometry">
            <mxPoint x="400" y="760" as="targetPoint" />
            <Array as="points">
              <mxPoint x="400" y="470" />
              <mxPoint x="400" y="470" />
            </Array>
          </mxGeometry>
        </mxCell>
        <mxCell id="z2dRrkCkyLfMmBdKckfR-28" value="False" style="edgeLabel;html=1;align=center;verticalAlign=middle;resizable=0;points=[];" vertex="1" connectable="0" parent="z2dRrkCkyLfMmBdKckfR-26">
          <mxGeometry x="-0.9264" y="-1" relative="1" as="geometry">
            <mxPoint as="offset" />
          </mxGeometry>
        </mxCell>
        <mxCell id="xaYOfIexUENVyX_pIuQl-4" value="x1 != 0" style="rhombus;whiteSpace=wrap;html=1;" vertex="1" parent="1">
          <mxGeometry x="320" y="170" width="160" height="80" as="geometry" />
        </mxCell>
        <mxCell id="xaYOfIexUENVyX_pIuQl-17" style="edgeStyle=orthogonalEdgeStyle;rounded=0;orthogonalLoop=1;jettySize=auto;html=1;entryX=0.5;entryY=0;entryDx=0;entryDy=0;" edge="1" parent="1" source="xaYOfIexUENVyX_pIuQl-11" target="xaYOfIexUENVyX_pIuQl-14">
          <mxGeometry relative="1" as="geometry">
            <Array as="points">
              <mxPoint x="120" y="290" />
            </Array>
          </mxGeometry>
        </mxCell>
        <mxCell id="xaYOfIexUENVyX_pIuQl-18" value="True" style="edgeLabel;html=1;align=center;verticalAlign=middle;resizable=0;points=[];" vertex="1" connectable="0" parent="xaYOfIexUENVyX_pIuQl-17">
          <mxGeometry x="-0.6278" relative="1" as="geometry">
            <mxPoint as="offset" />
          </mxGeometry>
        </mxCell>
        <mxCell id="z2dRrkCkyLfMmBdKckfR-1" style="edgeStyle=orthogonalEdgeStyle;rounded=0;orthogonalLoop=1;jettySize=auto;html=1;" edge="1" parent="1" source="xaYOfIexUENVyX_pIuQl-11">
          <mxGeometry relative="1" as="geometry">
            <mxPoint x="240" y="370" as="targetPoint" />
          </mxGeometry>
        </mxCell>
        <mxCell id="z2dRrkCkyLfMmBdKckfR-3" value="False" style="edgeLabel;html=1;align=center;verticalAlign=middle;resizable=0;points=[];" vertex="1" connectable="0" parent="z2dRrkCkyLfMmBdKckfR-1">
          <mxGeometry x="0.3524" relative="1" as="geometry">
            <mxPoint y="-37" as="offset" />
          </mxGeometry>
        </mxCell>
        <mxCell id="xaYOfIexUENVyX_pIuQl-11" value="x2 % x1 == 0" style="rhombus;whiteSpace=wrap;html=1;" vertex="1" parent="1">
          <mxGeometry x="160" y="250" width="160" height="80" as="geometry" />
        </mxCell>
        <mxCell id="z2dRrkCkyLfMmBdKckfR-4" style="edgeStyle=orthogonalEdgeStyle;rounded=0;orthogonalLoop=1;jettySize=auto;html=1;" edge="1" parent="1" source="xaYOfIexUENVyX_pIuQl-14">
          <mxGeometry relative="1" as="geometry">
            <mxPoint x="240" y="350" as="targetPoint" />
          </mxGeometry>
        </mxCell>
        <mxCell id="xaYOfIexUENVyX_pIuQl-14" value="count + 1" style="rounded=0;whiteSpace=wrap;html=1;" vertex="1" parent="1">
          <mxGeometry x="80" y="330" width="80" height="40" as="geometry" />
        </mxCell>
        <mxCell id="z2dRrkCkyLfMmBdKckfR-5" style="edgeStyle=orthogonalEdgeStyle;rounded=0;orthogonalLoop=1;jettySize=auto;html=1;entryX=0.5;entryY=0;entryDx=0;entryDy=0;" edge="1" parent="1" source="z2dRrkCkyLfMmBdKckfR-9" target="z2dRrkCkyLfMmBdKckfR-11">
          <mxGeometry relative="1" as="geometry">
            <Array as="points">
              <mxPoint x="120" y="410" />
            </Array>
          </mxGeometry>
        </mxCell>
        <mxCell id="z2dRrkCkyLfMmBdKckfR-6" value="True" style="edgeLabel;html=1;align=center;verticalAlign=middle;resizable=0;points=[];" vertex="1" connectable="0" parent="z2dRrkCkyLfMmBdKckfR-5">
          <mxGeometry x="-0.6278" relative="1" as="geometry">
            <mxPoint as="offset" />
          </mxGeometry>
        </mxCell>
        <mxCell id="z2dRrkCkyLfMmBdKckfR-7" style="edgeStyle=orthogonalEdgeStyle;rounded=0;orthogonalLoop=1;jettySize=auto;html=1;" edge="1" parent="1" source="z2dRrkCkyLfMmBdKckfR-9">
          <mxGeometry relative="1" as="geometry">
            <mxPoint x="240" y="490" as="targetPoint" />
          </mxGeometry>
        </mxCell>
        <mxCell id="z2dRrkCkyLfMmBdKckfR-8" value="False" style="edgeLabel;html=1;align=center;verticalAlign=middle;resizable=0;points=[];" vertex="1" connectable="0" parent="z2dRrkCkyLfMmBdKckfR-7">
          <mxGeometry x="0.3524" relative="1" as="geometry">
            <mxPoint y="-37" as="offset" />
          </mxGeometry>
        </mxCell>
        <mxCell id="z2dRrkCkyLfMmBdKckfR-9" value="x3 % x1 == 0" style="rhombus;whiteSpace=wrap;html=1;" vertex="1" parent="1">
          <mxGeometry x="160" y="370" width="160" height="80" as="geometry" />
        </mxCell>
        <mxCell id="z2dRrkCkyLfMmBdKckfR-10" style="edgeStyle=orthogonalEdgeStyle;rounded=0;orthogonalLoop=1;jettySize=auto;html=1;" edge="1" parent="1" source="z2dRrkCkyLfMmBdKckfR-11">
          <mxGeometry relative="1" as="geometry">
            <mxPoint x="240" y="470" as="targetPoint" />
          </mxGeometry>
        </mxCell>
        <mxCell id="z2dRrkCkyLfMmBdKckfR-11" value="count + 1" style="rounded=0;whiteSpace=wrap;html=1;" vertex="1" parent="1">
          <mxGeometry x="80" y="450" width="80" height="40" as="geometry" />
        </mxCell>
        <mxCell id="z2dRrkCkyLfMmBdKckfR-12" style="edgeStyle=orthogonalEdgeStyle;rounded=0;orthogonalLoop=1;jettySize=auto;html=1;entryX=0.5;entryY=0;entryDx=0;entryDy=0;" edge="1" parent="1" source="z2dRrkCkyLfMmBdKckfR-16" target="z2dRrkCkyLfMmBdKckfR-18">
          <mxGeometry relative="1" as="geometry">
            <Array as="points">
              <mxPoint x="120" y="530" />
            </Array>
          </mxGeometry>
        </mxCell>
        <mxCell id="z2dRrkCkyLfMmBdKckfR-13" value="True" style="edgeLabel;html=1;align=center;verticalAlign=middle;resizable=0;points=[];" vertex="1" connectable="0" parent="z2dRrkCkyLfMmBdKckfR-12">
          <mxGeometry x="-0.6278" relative="1" as="geometry">
            <mxPoint as="offset" />
          </mxGeometry>
        </mxCell>
        <mxCell id="z2dRrkCkyLfMmBdKckfR-14" style="edgeStyle=orthogonalEdgeStyle;rounded=0;orthogonalLoop=1;jettySize=auto;html=1;" edge="1" parent="1" source="z2dRrkCkyLfMmBdKckfR-16">
          <mxGeometry relative="1" as="geometry">
            <mxPoint x="240" y="610" as="targetPoint" />
          </mxGeometry>
        </mxCell>
        <mxCell id="z2dRrkCkyLfMmBdKckfR-15" value="False" style="edgeLabel;html=1;align=center;verticalAlign=middle;resizable=0;points=[];" vertex="1" connectable="0" parent="z2dRrkCkyLfMmBdKckfR-14">
          <mxGeometry x="0.3524" relative="1" as="geometry">
            <mxPoint y="-37" as="offset" />
          </mxGeometry>
        </mxCell>
        <mxCell id="z2dRrkCkyLfMmBdKckfR-16" value="x3 % x1 == 0" style="rhombus;whiteSpace=wrap;html=1;" vertex="1" parent="1">
          <mxGeometry x="160" y="490" width="160" height="80" as="geometry" />
        </mxCell>
        <mxCell id="z2dRrkCkyLfMmBdKckfR-17" style="edgeStyle=orthogonalEdgeStyle;rounded=0;orthogonalLoop=1;jettySize=auto;html=1;" edge="1" parent="1" source="z2dRrkCkyLfMmBdKckfR-18">
          <mxGeometry relative="1" as="geometry">
            <mxPoint x="240" y="590" as="targetPoint" />
          </mxGeometry>
        </mxCell>
        <mxCell id="z2dRrkCkyLfMmBdKckfR-18" value="count + 1" style="rounded=0;whiteSpace=wrap;html=1;" vertex="1" parent="1">
          <mxGeometry x="80" y="570" width="80" height="40" as="geometry" />
        </mxCell>
        <mxCell id="z2dRrkCkyLfMmBdKckfR-19" style="edgeStyle=orthogonalEdgeStyle;rounded=0;orthogonalLoop=1;jettySize=auto;html=1;entryX=0.5;entryY=0;entryDx=0;entryDy=0;" edge="1" parent="1" source="z2dRrkCkyLfMmBdKckfR-23" target="z2dRrkCkyLfMmBdKckfR-25">
          <mxGeometry relative="1" as="geometry">
            <Array as="points">
              <mxPoint x="120" y="650" />
            </Array>
          </mxGeometry>
        </mxCell>
        <mxCell id="z2dRrkCkyLfMmBdKckfR-20" value="True" style="edgeLabel;html=1;align=center;verticalAlign=middle;resizable=0;points=[];" vertex="1" connectable="0" parent="z2dRrkCkyLfMmBdKckfR-19">
          <mxGeometry x="-0.6278" relative="1" as="geometry">
            <mxPoint as="offset" />
          </mxGeometry>
        </mxCell>
        <mxCell id="z2dRrkCkyLfMmBdKckfR-21" style="edgeStyle=orthogonalEdgeStyle;rounded=0;orthogonalLoop=1;jettySize=auto;html=1;" edge="1" parent="1" source="z2dRrkCkyLfMmBdKckfR-23">
          <mxGeometry relative="1" as="geometry">
            <mxPoint x="400" y="730" as="targetPoint" />
            <Array as="points">
              <mxPoint x="240" y="730" />
            </Array>
          </mxGeometry>
        </mxCell>
        <mxCell id="z2dRrkCkyLfMmBdKckfR-22" value="False" style="edgeLabel;html=1;align=center;verticalAlign=middle;resizable=0;points=[];" vertex="1" connectable="0" parent="z2dRrkCkyLfMmBdKckfR-21">
          <mxGeometry x="0.3524" relative="1" as="geometry">
            <mxPoint x="-88" y="-30" as="offset" />
          </mxGeometry>
        </mxCell>
        <mxCell id="z2dRrkCkyLfMmBdKckfR-23" value="x4 % x1 == 0" style="rhombus;whiteSpace=wrap;html=1;" vertex="1" parent="1">
          <mxGeometry x="160" y="610" width="160" height="80" as="geometry" />
        </mxCell>
        <mxCell id="z2dRrkCkyLfMmBdKckfR-24" style="edgeStyle=orthogonalEdgeStyle;rounded=0;orthogonalLoop=1;jettySize=auto;html=1;" edge="1" parent="1" source="z2dRrkCkyLfMmBdKckfR-25">
          <mxGeometry relative="1" as="geometry">
            <mxPoint x="240" y="710" as="targetPoint" />
          </mxGeometry>
        </mxCell>
        <mxCell id="z2dRrkCkyLfMmBdKckfR-25" value="count + 1" style="rounded=0;whiteSpace=wrap;html=1;" vertex="1" parent="1">
          <mxGeometry x="80" y="690" width="80" height="40" as="geometry" />
        </mxCell>
        <mxCell id="z2dRrkCkyLfMmBdKckfR-29" value="False" style="edgeLabel;html=1;align=center;verticalAlign=middle;resizable=0;points=[];" vertex="1" connectable="0" parent="1">
          <mxGeometry x="240" y="580" as="geometry" />
        </mxCell>
        <mxCell id="z2dRrkCkyLfMmBdKckfR-32" value="False" style="edgeLabel;html=1;align=center;verticalAlign=middle;resizable=0;points=[];" vertex="1" connectable="0" parent="1">
          <mxGeometry x="240" y="460" as="geometry" />
        </mxCell>
        <mxCell id="z2dRrkCkyLfMmBdKckfR-33" value="False" style="edgeLabel;html=1;align=center;verticalAlign=middle;resizable=0;points=[];" vertex="1" connectable="0" parent="1">
          <mxGeometry x="240" y="340" as="geometry" />
        </mxCell>
        <mxCell id="z2dRrkCkyLfMmBdKckfR-34" style="edgeStyle=orthogonalEdgeStyle;rounded=0;orthogonalLoop=1;jettySize=auto;html=1;entryX=0.5;entryY=0;entryDx=0;entryDy=0;" edge="1" parent="1" source="z2dRrkCkyLfMmBdKckfR-38" target="z2dRrkCkyLfMmBdKckfR-43">
          <mxGeometry relative="1" as="geometry">
            <mxPoint x="240" y="850" as="targetPoint" />
            <Array as="points">
              <mxPoint x="240" y="800" />
            </Array>
          </mxGeometry>
        </mxCell>
        <mxCell id="z2dRrkCkyLfMmBdKckfR-35" value="True" style="edgeLabel;html=1;align=center;verticalAlign=middle;resizable=0;points=[];" vertex="1" connectable="0" parent="z2dRrkCkyLfMmBdKckfR-34">
          <mxGeometry x="-0.6804" relative="1" as="geometry">
            <mxPoint as="offset" />
          </mxGeometry>
        </mxCell>
        <mxCell id="z2dRrkCkyLfMmBdKckfR-36" style="edgeStyle=orthogonalEdgeStyle;rounded=0;orthogonalLoop=1;jettySize=auto;html=1;" edge="1" parent="1" source="z2dRrkCkyLfMmBdKckfR-38">
          <mxGeometry relative="1" as="geometry">
            <mxPoint x="400" y="1350" as="targetPoint" />
            <Array as="points">
              <mxPoint x="400" y="1060" />
              <mxPoint x="400" y="1060" />
            </Array>
          </mxGeometry>
        </mxCell>
        <mxCell id="z2dRrkCkyLfMmBdKckfR-37" value="False" style="edgeLabel;html=1;align=center;verticalAlign=middle;resizable=0;points=[];" vertex="1" connectable="0" parent="z2dRrkCkyLfMmBdKckfR-36">
          <mxGeometry x="-0.9264" y="-1" relative="1" as="geometry">
            <mxPoint as="offset" />
          </mxGeometry>
        </mxCell>
        <mxCell id="z2dRrkCkyLfMmBdKckfR-38" value="x2 != 0" style="rhombus;whiteSpace=wrap;html=1;" vertex="1" parent="1">
          <mxGeometry x="320" y="760" width="160" height="80" as="geometry" />
        </mxCell>
        <mxCell id="z2dRrkCkyLfMmBdKckfR-39" style="edgeStyle=orthogonalEdgeStyle;rounded=0;orthogonalLoop=1;jettySize=auto;html=1;entryX=0.5;entryY=0;entryDx=0;entryDy=0;" edge="1" parent="1" source="z2dRrkCkyLfMmBdKckfR-43" target="z2dRrkCkyLfMmBdKckfR-45">
          <mxGeometry relative="1" as="geometry">
            <Array as="points">
              <mxPoint x="120" y="880" />
            </Array>
          </mxGeometry>
        </mxCell>
        <mxCell id="z2dRrkCkyLfMmBdKckfR-40" value="True" style="edgeLabel;html=1;align=center;verticalAlign=middle;resizable=0;points=[];" vertex="1" connectable="0" parent="z2dRrkCkyLfMmBdKckfR-39">
          <mxGeometry x="-0.6278" relative="1" as="geometry">
            <mxPoint as="offset" />
          </mxGeometry>
        </mxCell>
        <mxCell id="z2dRrkCkyLfMmBdKckfR-41" style="edgeStyle=orthogonalEdgeStyle;rounded=0;orthogonalLoop=1;jettySize=auto;html=1;" edge="1" parent="1" source="z2dRrkCkyLfMmBdKckfR-43">
          <mxGeometry relative="1" as="geometry">
            <mxPoint x="240" y="960" as="targetPoint" />
          </mxGeometry>
        </mxCell>
        <mxCell id="z2dRrkCkyLfMmBdKckfR-42" value="False" style="edgeLabel;html=1;align=center;verticalAlign=middle;resizable=0;points=[];" vertex="1" connectable="0" parent="z2dRrkCkyLfMmBdKckfR-41">
          <mxGeometry x="0.3524" relative="1" as="geometry">
            <mxPoint y="-37" as="offset" />
          </mxGeometry>
        </mxCell>
        <mxCell id="z2dRrkCkyLfMmBdKckfR-43" value="x1 % x2 == 0" style="rhombus;whiteSpace=wrap;html=1;" vertex="1" parent="1">
          <mxGeometry x="160" y="840" width="160" height="80" as="geometry" />
        </mxCell>
        <mxCell id="z2dRrkCkyLfMmBdKckfR-44" style="edgeStyle=orthogonalEdgeStyle;rounded=0;orthogonalLoop=1;jettySize=auto;html=1;" edge="1" parent="1" source="z2dRrkCkyLfMmBdKckfR-45">
          <mxGeometry relative="1" as="geometry">
            <mxPoint x="240" y="940" as="targetPoint" />
          </mxGeometry>
        </mxCell>
        <mxCell id="z2dRrkCkyLfMmBdKckfR-45" value="count + 1" style="rounded=0;whiteSpace=wrap;html=1;" vertex="1" parent="1">
          <mxGeometry x="80" y="920" width="80" height="40" as="geometry" />
        </mxCell>
        <mxCell id="z2dRrkCkyLfMmBdKckfR-46" style="edgeStyle=orthogonalEdgeStyle;rounded=0;orthogonalLoop=1;jettySize=auto;html=1;entryX=0.5;entryY=0;entryDx=0;entryDy=0;" edge="1" parent="1" source="z2dRrkCkyLfMmBdKckfR-50" target="z2dRrkCkyLfMmBdKckfR-52">
          <mxGeometry relative="1" as="geometry">
            <Array as="points">
              <mxPoint x="120" y="1000" />
            </Array>
          </mxGeometry>
        </mxCell>
        <mxCell id="z2dRrkCkyLfMmBdKckfR-47" value="True" style="edgeLabel;html=1;align=center;verticalAlign=middle;resizable=0;points=[];" vertex="1" connectable="0" parent="z2dRrkCkyLfMmBdKckfR-46">
          <mxGeometry x="-0.6278" relative="1" as="geometry">
            <mxPoint as="offset" />
          </mxGeometry>
        </mxCell>
        <mxCell id="z2dRrkCkyLfMmBdKckfR-48" style="edgeStyle=orthogonalEdgeStyle;rounded=0;orthogonalLoop=1;jettySize=auto;html=1;" edge="1" parent="1" source="z2dRrkCkyLfMmBdKckfR-50">
          <mxGeometry relative="1" as="geometry">
            <mxPoint x="240" y="1080" as="targetPoint" />
          </mxGeometry>
        </mxCell>
        <mxCell id="z2dRrkCkyLfMmBdKckfR-49" value="False" style="edgeLabel;html=1;align=center;verticalAlign=middle;resizable=0;points=[];" vertex="1" connectable="0" parent="z2dRrkCkyLfMmBdKckfR-48">
          <mxGeometry x="0.3524" relative="1" as="geometry">
            <mxPoint y="-37" as="offset" />
          </mxGeometry>
        </mxCell>
        <mxCell id="z2dRrkCkyLfMmBdKckfR-50" value="x3 % x2 == 0" style="rhombus;whiteSpace=wrap;html=1;" vertex="1" parent="1">
          <mxGeometry x="160" y="960" width="160" height="80" as="geometry" />
        </mxCell>
        <mxCell id="z2dRrkCkyLfMmBdKckfR-51" style="edgeStyle=orthogonalEdgeStyle;rounded=0;orthogonalLoop=1;jettySize=auto;html=1;" edge="1" parent="1" source="z2dRrkCkyLfMmBdKckfR-52">
          <mxGeometry relative="1" as="geometry">
            <mxPoint x="240" y="1060" as="targetPoint" />
          </mxGeometry>
        </mxCell>
        <mxCell id="z2dRrkCkyLfMmBdKckfR-52" value="count + 1" style="rounded=0;whiteSpace=wrap;html=1;" vertex="1" parent="1">
          <mxGeometry x="80" y="1040" width="80" height="40" as="geometry" />
        </mxCell>
        <mxCell id="z2dRrkCkyLfMmBdKckfR-53" style="edgeStyle=orthogonalEdgeStyle;rounded=0;orthogonalLoop=1;jettySize=auto;html=1;entryX=0.5;entryY=0;entryDx=0;entryDy=0;" edge="1" parent="1" source="z2dRrkCkyLfMmBdKckfR-57" target="z2dRrkCkyLfMmBdKckfR-59">
          <mxGeometry relative="1" as="geometry">
            <Array as="points">
              <mxPoint x="120" y="1120" />
            </Array>
          </mxGeometry>
        </mxCell>
        <mxCell id="z2dRrkCkyLfMmBdKckfR-54" value="True" style="edgeLabel;html=1;align=center;verticalAlign=middle;resizable=0;points=[];" vertex="1" connectable="0" parent="z2dRrkCkyLfMmBdKckfR-53">
          <mxGeometry x="-0.6278" relative="1" as="geometry">
            <mxPoint as="offset" />
          </mxGeometry>
        </mxCell>
        <mxCell id="z2dRrkCkyLfMmBdKckfR-55" style="edgeStyle=orthogonalEdgeStyle;rounded=0;orthogonalLoop=1;jettySize=auto;html=1;" edge="1" parent="1" source="z2dRrkCkyLfMmBdKckfR-57">
          <mxGeometry relative="1" as="geometry">
            <mxPoint x="240" y="1200" as="targetPoint" />
          </mxGeometry>
        </mxCell>
        <mxCell id="z2dRrkCkyLfMmBdKckfR-56" value="False" style="edgeLabel;html=1;align=center;verticalAlign=middle;resizable=0;points=[];" vertex="1" connectable="0" parent="z2dRrkCkyLfMmBdKckfR-55">
          <mxGeometry x="0.3524" relative="1" as="geometry">
            <mxPoint y="-37" as="offset" />
          </mxGeometry>
        </mxCell>
        <mxCell id="z2dRrkCkyLfMmBdKckfR-57" value="x3 % x2 == 0" style="rhombus;whiteSpace=wrap;html=1;" vertex="1" parent="1">
          <mxGeometry x="160" y="1080" width="160" height="80" as="geometry" />
        </mxCell>
        <mxCell id="z2dRrkCkyLfMmBdKckfR-58" style="edgeStyle=orthogonalEdgeStyle;rounded=0;orthogonalLoop=1;jettySize=auto;html=1;" edge="1" parent="1" source="z2dRrkCkyLfMmBdKckfR-59">
          <mxGeometry relative="1" as="geometry">
            <mxPoint x="240" y="1180" as="targetPoint" />
          </mxGeometry>
        </mxCell>
        <mxCell id="z2dRrkCkyLfMmBdKckfR-59" value="count + 1" style="rounded=0;whiteSpace=wrap;html=1;" vertex="1" parent="1">
          <mxGeometry x="80" y="1160" width="80" height="40" as="geometry" />
        </mxCell>
        <mxCell id="z2dRrkCkyLfMmBdKckfR-60" style="edgeStyle=orthogonalEdgeStyle;rounded=0;orthogonalLoop=1;jettySize=auto;html=1;entryX=0.5;entryY=0;entryDx=0;entryDy=0;" edge="1" parent="1" source="z2dRrkCkyLfMmBdKckfR-64" target="z2dRrkCkyLfMmBdKckfR-66">
          <mxGeometry relative="1" as="geometry">
            <Array as="points">
              <mxPoint x="120" y="1240" />
            </Array>
          </mxGeometry>
        </mxCell>
        <mxCell id="z2dRrkCkyLfMmBdKckfR-61" value="True" style="edgeLabel;html=1;align=center;verticalAlign=middle;resizable=0;points=[];" vertex="1" connectable="0" parent="z2dRrkCkyLfMmBdKckfR-60">
          <mxGeometry x="-0.6278" relative="1" as="geometry">
            <mxPoint as="offset" />
          </mxGeometry>
        </mxCell>
        <mxCell id="z2dRrkCkyLfMmBdKckfR-62" style="edgeStyle=orthogonalEdgeStyle;rounded=0;orthogonalLoop=1;jettySize=auto;html=1;" edge="1" parent="1" source="z2dRrkCkyLfMmBdKckfR-64">
          <mxGeometry relative="1" as="geometry">
            <mxPoint x="400" y="1320" as="targetPoint" />
            <Array as="points">
              <mxPoint x="240" y="1320" />
            </Array>
          </mxGeometry>
        </mxCell>
        <mxCell id="z2dRrkCkyLfMmBdKckfR-63" value="False" style="edgeLabel;html=1;align=center;verticalAlign=middle;resizable=0;points=[];" vertex="1" connectable="0" parent="z2dRrkCkyLfMmBdKckfR-62">
          <mxGeometry x="0.3524" relative="1" as="geometry">
            <mxPoint x="-88" y="-30" as="offset" />
          </mxGeometry>
        </mxCell>
        <mxCell id="z2dRrkCkyLfMmBdKckfR-64" value="x4 % x2 == 0" style="rhombus;whiteSpace=wrap;html=1;" vertex="1" parent="1">
          <mxGeometry x="160" y="1200" width="160" height="80" as="geometry" />
        </mxCell>
        <mxCell id="z2dRrkCkyLfMmBdKckfR-65" style="edgeStyle=orthogonalEdgeStyle;rounded=0;orthogonalLoop=1;jettySize=auto;html=1;" edge="1" parent="1" source="z2dRrkCkyLfMmBdKckfR-66">
          <mxGeometry relative="1" as="geometry">
            <mxPoint x="240" y="1300" as="targetPoint" />
          </mxGeometry>
        </mxCell>
        <mxCell id="z2dRrkCkyLfMmBdKckfR-66" value="count + 1" style="rounded=0;whiteSpace=wrap;html=1;" vertex="1" parent="1">
          <mxGeometry x="80" y="1280" width="80" height="40" as="geometry" />
        </mxCell>
        <mxCell id="z2dRrkCkyLfMmBdKckfR-67" value="False" style="edgeLabel;html=1;align=center;verticalAlign=middle;resizable=0;points=[];" vertex="1" connectable="0" parent="1">
          <mxGeometry x="240" y="1170" as="geometry" />
        </mxCell>
        <mxCell id="z2dRrkCkyLfMmBdKckfR-68" value="False" style="edgeLabel;html=1;align=center;verticalAlign=middle;resizable=0;points=[];" vertex="1" connectable="0" parent="1">
          <mxGeometry x="240" y="1050" as="geometry" />
        </mxCell>
        <mxCell id="z2dRrkCkyLfMmBdKckfR-69" value="False" style="edgeLabel;html=1;align=center;verticalAlign=middle;resizable=0;points=[];" vertex="1" connectable="0" parent="1">
          <mxGeometry x="240" y="930" as="geometry" />
        </mxCell>
        <mxCell id="z2dRrkCkyLfMmBdKckfR-70" style="edgeStyle=orthogonalEdgeStyle;rounded=0;orthogonalLoop=1;jettySize=auto;html=1;entryX=0.5;entryY=0;entryDx=0;entryDy=0;" edge="1" parent="1" source="z2dRrkCkyLfMmBdKckfR-74" target="z2dRrkCkyLfMmBdKckfR-79">
          <mxGeometry relative="1" as="geometry">
            <mxPoint x="240" y="1440" as="targetPoint" />
            <Array as="points">
              <mxPoint x="240" y="1390" />
            </Array>
          </mxGeometry>
        </mxCell>
        <mxCell id="z2dRrkCkyLfMmBdKckfR-71" value="True" style="edgeLabel;html=1;align=center;verticalAlign=middle;resizable=0;points=[];" vertex="1" connectable="0" parent="z2dRrkCkyLfMmBdKckfR-70">
          <mxGeometry x="-0.6804" relative="1" as="geometry">
            <mxPoint as="offset" />
          </mxGeometry>
        </mxCell>
        <mxCell id="z2dRrkCkyLfMmBdKckfR-72" style="edgeStyle=orthogonalEdgeStyle;rounded=0;orthogonalLoop=1;jettySize=auto;html=1;" edge="1" parent="1" source="z2dRrkCkyLfMmBdKckfR-74">
          <mxGeometry relative="1" as="geometry">
            <mxPoint x="400" y="1940" as="targetPoint" />
            <Array as="points">
              <mxPoint x="400" y="1650" />
              <mxPoint x="400" y="1650" />
            </Array>
          </mxGeometry>
        </mxCell>
        <mxCell id="z2dRrkCkyLfMmBdKckfR-73" value="False" style="edgeLabel;html=1;align=center;verticalAlign=middle;resizable=0;points=[];" vertex="1" connectable="0" parent="z2dRrkCkyLfMmBdKckfR-72">
          <mxGeometry x="-0.9264" y="-1" relative="1" as="geometry">
            <mxPoint as="offset" />
          </mxGeometry>
        </mxCell>
        <mxCell id="z2dRrkCkyLfMmBdKckfR-74" value="x3 != 0" style="rhombus;whiteSpace=wrap;html=1;" vertex="1" parent="1">
          <mxGeometry x="320" y="1350" width="160" height="80" as="geometry" />
        </mxCell>
        <mxCell id="z2dRrkCkyLfMmBdKckfR-75" style="edgeStyle=orthogonalEdgeStyle;rounded=0;orthogonalLoop=1;jettySize=auto;html=1;entryX=0.5;entryY=0;entryDx=0;entryDy=0;" edge="1" parent="1" source="z2dRrkCkyLfMmBdKckfR-79" target="z2dRrkCkyLfMmBdKckfR-81">
          <mxGeometry relative="1" as="geometry">
            <Array as="points">
              <mxPoint x="120" y="1470" />
            </Array>
          </mxGeometry>
        </mxCell>
        <mxCell id="z2dRrkCkyLfMmBdKckfR-76" value="True" style="edgeLabel;html=1;align=center;verticalAlign=middle;resizable=0;points=[];" vertex="1" connectable="0" parent="z2dRrkCkyLfMmBdKckfR-75">
          <mxGeometry x="-0.6278" relative="1" as="geometry">
            <mxPoint as="offset" />
          </mxGeometry>
        </mxCell>
        <mxCell id="z2dRrkCkyLfMmBdKckfR-77" style="edgeStyle=orthogonalEdgeStyle;rounded=0;orthogonalLoop=1;jettySize=auto;html=1;" edge="1" parent="1" source="z2dRrkCkyLfMmBdKckfR-79">
          <mxGeometry relative="1" as="geometry">
            <mxPoint x="240" y="1550" as="targetPoint" />
          </mxGeometry>
        </mxCell>
        <mxCell id="z2dRrkCkyLfMmBdKckfR-78" value="False" style="edgeLabel;html=1;align=center;verticalAlign=middle;resizable=0;points=[];" vertex="1" connectable="0" parent="z2dRrkCkyLfMmBdKckfR-77">
          <mxGeometry x="0.3524" relative="1" as="geometry">
            <mxPoint y="-37" as="offset" />
          </mxGeometry>
        </mxCell>
        <mxCell id="z2dRrkCkyLfMmBdKckfR-79" value="x1 % x3 == 0" style="rhombus;whiteSpace=wrap;html=1;" vertex="1" parent="1">
          <mxGeometry x="160" y="1430" width="160" height="80" as="geometry" />
        </mxCell>
        <mxCell id="z2dRrkCkyLfMmBdKckfR-80" style="edgeStyle=orthogonalEdgeStyle;rounded=0;orthogonalLoop=1;jettySize=auto;html=1;" edge="1" parent="1" source="z2dRrkCkyLfMmBdKckfR-81">
          <mxGeometry relative="1" as="geometry">
            <mxPoint x="240" y="1530" as="targetPoint" />
          </mxGeometry>
        </mxCell>
        <mxCell id="z2dRrkCkyLfMmBdKckfR-81" value="count + 1" style="rounded=0;whiteSpace=wrap;html=1;" vertex="1" parent="1">
          <mxGeometry x="80" y="1510" width="80" height="40" as="geometry" />
        </mxCell>
        <mxCell id="z2dRrkCkyLfMmBdKckfR-82" style="edgeStyle=orthogonalEdgeStyle;rounded=0;orthogonalLoop=1;jettySize=auto;html=1;entryX=0.5;entryY=0;entryDx=0;entryDy=0;" edge="1" parent="1" source="z2dRrkCkyLfMmBdKckfR-86" target="z2dRrkCkyLfMmBdKckfR-88">
          <mxGeometry relative="1" as="geometry">
            <Array as="points">
              <mxPoint x="120" y="1590" />
            </Array>
          </mxGeometry>
        </mxCell>
        <mxCell id="z2dRrkCkyLfMmBdKckfR-83" value="True" style="edgeLabel;html=1;align=center;verticalAlign=middle;resizable=0;points=[];" vertex="1" connectable="0" parent="z2dRrkCkyLfMmBdKckfR-82">
          <mxGeometry x="-0.6278" relative="1" as="geometry">
            <mxPoint as="offset" />
          </mxGeometry>
        </mxCell>
        <mxCell id="z2dRrkCkyLfMmBdKckfR-84" style="edgeStyle=orthogonalEdgeStyle;rounded=0;orthogonalLoop=1;jettySize=auto;html=1;" edge="1" parent="1" source="z2dRrkCkyLfMmBdKckfR-86">
          <mxGeometry relative="1" as="geometry">
            <mxPoint x="240" y="1670" as="targetPoint" />
          </mxGeometry>
        </mxCell>
        <mxCell id="z2dRrkCkyLfMmBdKckfR-85" value="False" style="edgeLabel;html=1;align=center;verticalAlign=middle;resizable=0;points=[];" vertex="1" connectable="0" parent="z2dRrkCkyLfMmBdKckfR-84">
          <mxGeometry x="0.3524" relative="1" as="geometry">
            <mxPoint y="-37" as="offset" />
          </mxGeometry>
        </mxCell>
        <mxCell id="z2dRrkCkyLfMmBdKckfR-86" value="x2 % x3 == 0" style="rhombus;whiteSpace=wrap;html=1;" vertex="1" parent="1">
          <mxGeometry x="160" y="1550" width="160" height="80" as="geometry" />
        </mxCell>
        <mxCell id="z2dRrkCkyLfMmBdKckfR-87" style="edgeStyle=orthogonalEdgeStyle;rounded=0;orthogonalLoop=1;jettySize=auto;html=1;" edge="1" parent="1" source="z2dRrkCkyLfMmBdKckfR-88">
          <mxGeometry relative="1" as="geometry">
            <mxPoint x="240" y="1650" as="targetPoint" />
          </mxGeometry>
        </mxCell>
        <mxCell id="z2dRrkCkyLfMmBdKckfR-88" value="count + 1" style="rounded=0;whiteSpace=wrap;html=1;" vertex="1" parent="1">
          <mxGeometry x="80" y="1630" width="80" height="40" as="geometry" />
        </mxCell>
        <mxCell id="z2dRrkCkyLfMmBdKckfR-89" style="edgeStyle=orthogonalEdgeStyle;rounded=0;orthogonalLoop=1;jettySize=auto;html=1;entryX=0.5;entryY=0;entryDx=0;entryDy=0;" edge="1" parent="1" source="z2dRrkCkyLfMmBdKckfR-93" target="z2dRrkCkyLfMmBdKckfR-95">
          <mxGeometry relative="1" as="geometry">
            <Array as="points">
              <mxPoint x="120" y="1710" />
            </Array>
          </mxGeometry>
        </mxCell>
        <mxCell id="z2dRrkCkyLfMmBdKckfR-90" value="True" style="edgeLabel;html=1;align=center;verticalAlign=middle;resizable=0;points=[];" vertex="1" connectable="0" parent="z2dRrkCkyLfMmBdKckfR-89">
          <mxGeometry x="-0.6278" relative="1" as="geometry">
            <mxPoint as="offset" />
          </mxGeometry>
        </mxCell>
        <mxCell id="z2dRrkCkyLfMmBdKckfR-91" style="edgeStyle=orthogonalEdgeStyle;rounded=0;orthogonalLoop=1;jettySize=auto;html=1;" edge="1" parent="1" source="z2dRrkCkyLfMmBdKckfR-93">
          <mxGeometry relative="1" as="geometry">
            <mxPoint x="240" y="1790" as="targetPoint" />
          </mxGeometry>
        </mxCell>
        <mxCell id="z2dRrkCkyLfMmBdKckfR-92" value="False" style="edgeLabel;html=1;align=center;verticalAlign=middle;resizable=0;points=[];" vertex="1" connectable="0" parent="z2dRrkCkyLfMmBdKckfR-91">
          <mxGeometry x="0.3524" relative="1" as="geometry">
            <mxPoint y="-37" as="offset" />
          </mxGeometry>
        </mxCell>
        <mxCell id="z2dRrkCkyLfMmBdKckfR-93" value="x4 % x3 == 0" style="rhombus;whiteSpace=wrap;html=1;" vertex="1" parent="1">
          <mxGeometry x="160" y="1670" width="160" height="80" as="geometry" />
        </mxCell>
        <mxCell id="z2dRrkCkyLfMmBdKckfR-94" style="edgeStyle=orthogonalEdgeStyle;rounded=0;orthogonalLoop=1;jettySize=auto;html=1;" edge="1" parent="1" source="z2dRrkCkyLfMmBdKckfR-95">
          <mxGeometry relative="1" as="geometry">
            <mxPoint x="240" y="1770" as="targetPoint" />
          </mxGeometry>
        </mxCell>
        <mxCell id="z2dRrkCkyLfMmBdKckfR-95" value="count + 1" style="rounded=0;whiteSpace=wrap;html=1;" vertex="1" parent="1">
          <mxGeometry x="80" y="1750" width="80" height="40" as="geometry" />
        </mxCell>
        <mxCell id="z2dRrkCkyLfMmBdKckfR-96" style="edgeStyle=orthogonalEdgeStyle;rounded=0;orthogonalLoop=1;jettySize=auto;html=1;entryX=0.5;entryY=0;entryDx=0;entryDy=0;" edge="1" parent="1" source="z2dRrkCkyLfMmBdKckfR-100" target="z2dRrkCkyLfMmBdKckfR-102">
          <mxGeometry relative="1" as="geometry">
            <Array as="points">
              <mxPoint x="120" y="1830" />
            </Array>
          </mxGeometry>
        </mxCell>
        <mxCell id="z2dRrkCkyLfMmBdKckfR-97" value="True" style="edgeLabel;html=1;align=center;verticalAlign=middle;resizable=0;points=[];" vertex="1" connectable="0" parent="z2dRrkCkyLfMmBdKckfR-96">
          <mxGeometry x="-0.6278" relative="1" as="geometry">
            <mxPoint as="offset" />
          </mxGeometry>
        </mxCell>
        <mxCell id="z2dRrkCkyLfMmBdKckfR-98" style="edgeStyle=orthogonalEdgeStyle;rounded=0;orthogonalLoop=1;jettySize=auto;html=1;" edge="1" parent="1" source="z2dRrkCkyLfMmBdKckfR-100">
          <mxGeometry relative="1" as="geometry">
            <mxPoint x="400" y="1910" as="targetPoint" />
            <Array as="points">
              <mxPoint x="240" y="1910" />
            </Array>
          </mxGeometry>
        </mxCell>
        <mxCell id="z2dRrkCkyLfMmBdKckfR-99" value="False" style="edgeLabel;html=1;align=center;verticalAlign=middle;resizable=0;points=[];" vertex="1" connectable="0" parent="z2dRrkCkyLfMmBdKckfR-98">
          <mxGeometry x="0.3524" relative="1" as="geometry">
            <mxPoint x="-88" y="-30" as="offset" />
          </mxGeometry>
        </mxCell>
        <mxCell id="z2dRrkCkyLfMmBdKckfR-100" value="x5 % x3 == 0" style="rhombus;whiteSpace=wrap;html=1;" vertex="1" parent="1">
          <mxGeometry x="160" y="1790" width="160" height="80" as="geometry" />
        </mxCell>
        <mxCell id="z2dRrkCkyLfMmBdKckfR-101" style="edgeStyle=orthogonalEdgeStyle;rounded=0;orthogonalLoop=1;jettySize=auto;html=1;" edge="1" parent="1" source="z2dRrkCkyLfMmBdKckfR-102">
          <mxGeometry relative="1" as="geometry">
            <mxPoint x="240" y="1890" as="targetPoint" />
          </mxGeometry>
        </mxCell>
        <mxCell id="z2dRrkCkyLfMmBdKckfR-102" value="count + 1" style="rounded=0;whiteSpace=wrap;html=1;" vertex="1" parent="1">
          <mxGeometry x="80" y="1870" width="80" height="40" as="geometry" />
        </mxCell>
        <mxCell id="z2dRrkCkyLfMmBdKckfR-103" value="False" style="edgeLabel;html=1;align=center;verticalAlign=middle;resizable=0;points=[];" vertex="1" connectable="0" parent="1">
          <mxGeometry x="240" y="1760" as="geometry" />
        </mxCell>
        <mxCell id="z2dRrkCkyLfMmBdKckfR-104" value="False" style="edgeLabel;html=1;align=center;verticalAlign=middle;resizable=0;points=[];" vertex="1" connectable="0" parent="1">
          <mxGeometry x="240" y="1640" as="geometry" />
        </mxCell>
        <mxCell id="z2dRrkCkyLfMmBdKckfR-105" value="False" style="edgeLabel;html=1;align=center;verticalAlign=middle;resizable=0;points=[];" vertex="1" connectable="0" parent="1">
          <mxGeometry x="240" y="1520" as="geometry" />
        </mxCell>
        <mxCell id="z2dRrkCkyLfMmBdKckfR-106" style="edgeStyle=orthogonalEdgeStyle;rounded=0;orthogonalLoop=1;jettySize=auto;html=1;entryX=0.5;entryY=0;entryDx=0;entryDy=0;" edge="1" parent="1" source="z2dRrkCkyLfMmBdKckfR-110" target="z2dRrkCkyLfMmBdKckfR-115">
          <mxGeometry relative="1" as="geometry">
            <mxPoint x="240" y="2030" as="targetPoint" />
            <Array as="points">
              <mxPoint x="240" y="1980" />
            </Array>
          </mxGeometry>
        </mxCell>
        <mxCell id="z2dRrkCkyLfMmBdKckfR-107" value="True" style="edgeLabel;html=1;align=center;verticalAlign=middle;resizable=0;points=[];" vertex="1" connectable="0" parent="z2dRrkCkyLfMmBdKckfR-106">
          <mxGeometry x="-0.6804" relative="1" as="geometry">
            <mxPoint as="offset" />
          </mxGeometry>
        </mxCell>
        <mxCell id="z2dRrkCkyLfMmBdKckfR-108" style="edgeStyle=orthogonalEdgeStyle;rounded=0;orthogonalLoop=1;jettySize=auto;html=1;" edge="1" parent="1" source="z2dRrkCkyLfMmBdKckfR-110">
          <mxGeometry relative="1" as="geometry">
            <mxPoint x="400" y="2530" as="targetPoint" />
            <Array as="points">
              <mxPoint x="400" y="2240" />
              <mxPoint x="400" y="2240" />
            </Array>
          </mxGeometry>
        </mxCell>
        <mxCell id="z2dRrkCkyLfMmBdKckfR-109" value="False" style="edgeLabel;html=1;align=center;verticalAlign=middle;resizable=0;points=[];" vertex="1" connectable="0" parent="z2dRrkCkyLfMmBdKckfR-108">
          <mxGeometry x="-0.9264" y="-1" relative="1" as="geometry">
            <mxPoint as="offset" />
          </mxGeometry>
        </mxCell>
        <mxCell id="z2dRrkCkyLfMmBdKckfR-110" value="x4 != 0" style="rhombus;whiteSpace=wrap;html=1;" vertex="1" parent="1">
          <mxGeometry x="320" y="1940" width="160" height="80" as="geometry" />
        </mxCell>
        <mxCell id="z2dRrkCkyLfMmBdKckfR-111" style="edgeStyle=orthogonalEdgeStyle;rounded=0;orthogonalLoop=1;jettySize=auto;html=1;entryX=0.5;entryY=0;entryDx=0;entryDy=0;" edge="1" parent="1" source="z2dRrkCkyLfMmBdKckfR-115" target="z2dRrkCkyLfMmBdKckfR-117">
          <mxGeometry relative="1" as="geometry">
            <Array as="points">
              <mxPoint x="120" y="2060" />
            </Array>
          </mxGeometry>
        </mxCell>
        <mxCell id="z2dRrkCkyLfMmBdKckfR-112" value="True" style="edgeLabel;html=1;align=center;verticalAlign=middle;resizable=0;points=[];" vertex="1" connectable="0" parent="z2dRrkCkyLfMmBdKckfR-111">
          <mxGeometry x="-0.6278" relative="1" as="geometry">
            <mxPoint as="offset" />
          </mxGeometry>
        </mxCell>
        <mxCell id="z2dRrkCkyLfMmBdKckfR-113" style="edgeStyle=orthogonalEdgeStyle;rounded=0;orthogonalLoop=1;jettySize=auto;html=1;" edge="1" parent="1" source="z2dRrkCkyLfMmBdKckfR-115">
          <mxGeometry relative="1" as="geometry">
            <mxPoint x="240" y="2140" as="targetPoint" />
          </mxGeometry>
        </mxCell>
        <mxCell id="z2dRrkCkyLfMmBdKckfR-114" value="False" style="edgeLabel;html=1;align=center;verticalAlign=middle;resizable=0;points=[];" vertex="1" connectable="0" parent="z2dRrkCkyLfMmBdKckfR-113">
          <mxGeometry x="0.3524" relative="1" as="geometry">
            <mxPoint y="-37" as="offset" />
          </mxGeometry>
        </mxCell>
        <mxCell id="z2dRrkCkyLfMmBdKckfR-115" value="x1 % x4 == 0" style="rhombus;whiteSpace=wrap;html=1;" vertex="1" parent="1">
          <mxGeometry x="160" y="2020" width="160" height="80" as="geometry" />
        </mxCell>
        <mxCell id="z2dRrkCkyLfMmBdKckfR-116" style="edgeStyle=orthogonalEdgeStyle;rounded=0;orthogonalLoop=1;jettySize=auto;html=1;" edge="1" parent="1" source="z2dRrkCkyLfMmBdKckfR-117">
          <mxGeometry relative="1" as="geometry">
            <mxPoint x="240" y="2120" as="targetPoint" />
          </mxGeometry>
        </mxCell>
        <mxCell id="z2dRrkCkyLfMmBdKckfR-117" value="count + 1" style="rounded=0;whiteSpace=wrap;html=1;" vertex="1" parent="1">
          <mxGeometry x="80" y="2100" width="80" height="40" as="geometry" />
        </mxCell>
        <mxCell id="z2dRrkCkyLfMmBdKckfR-118" style="edgeStyle=orthogonalEdgeStyle;rounded=0;orthogonalLoop=1;jettySize=auto;html=1;entryX=0.5;entryY=0;entryDx=0;entryDy=0;" edge="1" parent="1" source="z2dRrkCkyLfMmBdKckfR-122" target="z2dRrkCkyLfMmBdKckfR-124">
          <mxGeometry relative="1" as="geometry">
            <Array as="points">
              <mxPoint x="120" y="2180" />
            </Array>
          </mxGeometry>
        </mxCell>
        <mxCell id="z2dRrkCkyLfMmBdKckfR-119" value="True" style="edgeLabel;html=1;align=center;verticalAlign=middle;resizable=0;points=[];" vertex="1" connectable="0" parent="z2dRrkCkyLfMmBdKckfR-118">
          <mxGeometry x="-0.6278" relative="1" as="geometry">
            <mxPoint as="offset" />
          </mxGeometry>
        </mxCell>
        <mxCell id="z2dRrkCkyLfMmBdKckfR-120" style="edgeStyle=orthogonalEdgeStyle;rounded=0;orthogonalLoop=1;jettySize=auto;html=1;" edge="1" parent="1" source="z2dRrkCkyLfMmBdKckfR-122">
          <mxGeometry relative="1" as="geometry">
            <mxPoint x="240" y="2260" as="targetPoint" />
          </mxGeometry>
        </mxCell>
        <mxCell id="z2dRrkCkyLfMmBdKckfR-121" value="False" style="edgeLabel;html=1;align=center;verticalAlign=middle;resizable=0;points=[];" vertex="1" connectable="0" parent="z2dRrkCkyLfMmBdKckfR-120">
          <mxGeometry x="0.3524" relative="1" as="geometry">
            <mxPoint y="-37" as="offset" />
          </mxGeometry>
        </mxCell>
        <mxCell id="z2dRrkCkyLfMmBdKckfR-122" value="x2 % x4 == 0" style="rhombus;whiteSpace=wrap;html=1;" vertex="1" parent="1">
          <mxGeometry x="160" y="2140" width="160" height="80" as="geometry" />
        </mxCell>
        <mxCell id="z2dRrkCkyLfMmBdKckfR-123" style="edgeStyle=orthogonalEdgeStyle;rounded=0;orthogonalLoop=1;jettySize=auto;html=1;" edge="1" parent="1" source="z2dRrkCkyLfMmBdKckfR-124">
          <mxGeometry relative="1" as="geometry">
            <mxPoint x="240" y="2240" as="targetPoint" />
          </mxGeometry>
        </mxCell>
        <mxCell id="z2dRrkCkyLfMmBdKckfR-124" value="count + 1" style="rounded=0;whiteSpace=wrap;html=1;" vertex="1" parent="1">
          <mxGeometry x="80" y="2220" width="80" height="40" as="geometry" />
        </mxCell>
        <mxCell id="z2dRrkCkyLfMmBdKckfR-125" style="edgeStyle=orthogonalEdgeStyle;rounded=0;orthogonalLoop=1;jettySize=auto;html=1;entryX=0.5;entryY=0;entryDx=0;entryDy=0;" edge="1" parent="1" source="z2dRrkCkyLfMmBdKckfR-129" target="z2dRrkCkyLfMmBdKckfR-131">
          <mxGeometry relative="1" as="geometry">
            <Array as="points">
              <mxPoint x="120" y="2300" />
            </Array>
          </mxGeometry>
        </mxCell>
        <mxCell id="z2dRrkCkyLfMmBdKckfR-126" value="True" style="edgeLabel;html=1;align=center;verticalAlign=middle;resizable=0;points=[];" vertex="1" connectable="0" parent="z2dRrkCkyLfMmBdKckfR-125">
          <mxGeometry x="-0.6278" relative="1" as="geometry">
            <mxPoint as="offset" />
          </mxGeometry>
        </mxCell>
        <mxCell id="z2dRrkCkyLfMmBdKckfR-127" style="edgeStyle=orthogonalEdgeStyle;rounded=0;orthogonalLoop=1;jettySize=auto;html=1;" edge="1" parent="1" source="z2dRrkCkyLfMmBdKckfR-129">
          <mxGeometry relative="1" as="geometry">
            <mxPoint x="240" y="2380" as="targetPoint" />
          </mxGeometry>
        </mxCell>
        <mxCell id="z2dRrkCkyLfMmBdKckfR-128" value="False" style="edgeLabel;html=1;align=center;verticalAlign=middle;resizable=0;points=[];" vertex="1" connectable="0" parent="z2dRrkCkyLfMmBdKckfR-127">
          <mxGeometry x="0.3524" relative="1" as="geometry">
            <mxPoint y="-37" as="offset" />
          </mxGeometry>
        </mxCell>
        <mxCell id="z2dRrkCkyLfMmBdKckfR-129" value="x3 % x4 == 0" style="rhombus;whiteSpace=wrap;html=1;" vertex="1" parent="1">
          <mxGeometry x="160" y="2260" width="160" height="80" as="geometry" />
        </mxCell>
        <mxCell id="z2dRrkCkyLfMmBdKckfR-130" style="edgeStyle=orthogonalEdgeStyle;rounded=0;orthogonalLoop=1;jettySize=auto;html=1;" edge="1" parent="1" source="z2dRrkCkyLfMmBdKckfR-131">
          <mxGeometry relative="1" as="geometry">
            <mxPoint x="240" y="2360" as="targetPoint" />
          </mxGeometry>
        </mxCell>
        <mxCell id="z2dRrkCkyLfMmBdKckfR-131" value="count + 1" style="rounded=0;whiteSpace=wrap;html=1;" vertex="1" parent="1">
          <mxGeometry x="80" y="2340" width="80" height="40" as="geometry" />
        </mxCell>
        <mxCell id="z2dRrkCkyLfMmBdKckfR-132" style="edgeStyle=orthogonalEdgeStyle;rounded=0;orthogonalLoop=1;jettySize=auto;html=1;entryX=0.5;entryY=0;entryDx=0;entryDy=0;" edge="1" parent="1" source="z2dRrkCkyLfMmBdKckfR-136" target="z2dRrkCkyLfMmBdKckfR-138">
          <mxGeometry relative="1" as="geometry">
            <Array as="points">
              <mxPoint x="120" y="2420" />
            </Array>
          </mxGeometry>
        </mxCell>
        <mxCell id="z2dRrkCkyLfMmBdKckfR-133" value="True" style="edgeLabel;html=1;align=center;verticalAlign=middle;resizable=0;points=[];" vertex="1" connectable="0" parent="z2dRrkCkyLfMmBdKckfR-132">
          <mxGeometry x="-0.6278" relative="1" as="geometry">
            <mxPoint as="offset" />
          </mxGeometry>
        </mxCell>
        <mxCell id="z2dRrkCkyLfMmBdKckfR-134" style="edgeStyle=orthogonalEdgeStyle;rounded=0;orthogonalLoop=1;jettySize=auto;html=1;" edge="1" parent="1" source="z2dRrkCkyLfMmBdKckfR-136">
          <mxGeometry relative="1" as="geometry">
            <mxPoint x="400" y="2500" as="targetPoint" />
            <Array as="points">
              <mxPoint x="240" y="2500" />
            </Array>
          </mxGeometry>
        </mxCell>
        <mxCell id="z2dRrkCkyLfMmBdKckfR-135" value="False" style="edgeLabel;html=1;align=center;verticalAlign=middle;resizable=0;points=[];" vertex="1" connectable="0" parent="z2dRrkCkyLfMmBdKckfR-134">
          <mxGeometry x="0.3524" relative="1" as="geometry">
            <mxPoint x="-88" y="-30" as="offset" />
          </mxGeometry>
        </mxCell>
        <mxCell id="z2dRrkCkyLfMmBdKckfR-136" value="x5 % x4 == 0" style="rhombus;whiteSpace=wrap;html=1;" vertex="1" parent="1">
          <mxGeometry x="160" y="2380" width="160" height="80" as="geometry" />
        </mxCell>
        <mxCell id="z2dRrkCkyLfMmBdKckfR-137" style="edgeStyle=orthogonalEdgeStyle;rounded=0;orthogonalLoop=1;jettySize=auto;html=1;" edge="1" parent="1" source="z2dRrkCkyLfMmBdKckfR-138">
          <mxGeometry relative="1" as="geometry">
            <mxPoint x="240" y="2480" as="targetPoint" />
          </mxGeometry>
        </mxCell>
        <mxCell id="z2dRrkCkyLfMmBdKckfR-138" value="count + 1" style="rounded=0;whiteSpace=wrap;html=1;" vertex="1" parent="1">
          <mxGeometry x="80" y="2460" width="80" height="40" as="geometry" />
        </mxCell>
        <mxCell id="z2dRrkCkyLfMmBdKckfR-139" value="False" style="edgeLabel;html=1;align=center;verticalAlign=middle;resizable=0;points=[];" vertex="1" connectable="0" parent="1">
          <mxGeometry x="240" y="2350" as="geometry" />
        </mxCell>
        <mxCell id="z2dRrkCkyLfMmBdKckfR-140" value="False" style="edgeLabel;html=1;align=center;verticalAlign=middle;resizable=0;points=[];" vertex="1" connectable="0" parent="1">
          <mxGeometry x="240" y="2230" as="geometry" />
        </mxCell>
        <mxCell id="z2dRrkCkyLfMmBdKckfR-141" value="False" style="edgeLabel;html=1;align=center;verticalAlign=middle;resizable=0;points=[];" vertex="1" connectable="0" parent="1">
          <mxGeometry x="240" y="2110" as="geometry" />
        </mxCell>
        <mxCell id="z2dRrkCkyLfMmBdKckfR-142" style="edgeStyle=orthogonalEdgeStyle;rounded=0;orthogonalLoop=1;jettySize=auto;html=1;entryX=0.5;entryY=0;entryDx=0;entryDy=0;" edge="1" parent="1" source="z2dRrkCkyLfMmBdKckfR-146" target="z2dRrkCkyLfMmBdKckfR-151">
          <mxGeometry relative="1" as="geometry">
            <mxPoint x="240" y="2620" as="targetPoint" />
            <Array as="points">
              <mxPoint x="240" y="2570" />
            </Array>
          </mxGeometry>
        </mxCell>
        <mxCell id="z2dRrkCkyLfMmBdKckfR-143" value="True" style="edgeLabel;html=1;align=center;verticalAlign=middle;resizable=0;points=[];" vertex="1" connectable="0" parent="z2dRrkCkyLfMmBdKckfR-142">
          <mxGeometry x="-0.6804" relative="1" as="geometry">
            <mxPoint as="offset" />
          </mxGeometry>
        </mxCell>
        <mxCell id="z2dRrkCkyLfMmBdKckfR-144" style="edgeStyle=orthogonalEdgeStyle;rounded=0;orthogonalLoop=1;jettySize=auto;html=1;" edge="1" parent="1" source="z2dRrkCkyLfMmBdKckfR-146">
          <mxGeometry relative="1" as="geometry">
            <mxPoint x="400" y="3120" as="targetPoint" />
            <Array as="points">
              <mxPoint x="400" y="2830" />
              <mxPoint x="400" y="2830" />
            </Array>
          </mxGeometry>
        </mxCell>
        <mxCell id="z2dRrkCkyLfMmBdKckfR-145" value="False" style="edgeLabel;html=1;align=center;verticalAlign=middle;resizable=0;points=[];" vertex="1" connectable="0" parent="z2dRrkCkyLfMmBdKckfR-144">
          <mxGeometry x="-0.9264" y="-1" relative="1" as="geometry">
            <mxPoint as="offset" />
          </mxGeometry>
        </mxCell>
        <mxCell id="z2dRrkCkyLfMmBdKckfR-146" value="x5 != 0" style="rhombus;whiteSpace=wrap;html=1;" vertex="1" parent="1">
          <mxGeometry x="320" y="2530" width="160" height="80" as="geometry" />
        </mxCell>
        <mxCell id="z2dRrkCkyLfMmBdKckfR-147" style="edgeStyle=orthogonalEdgeStyle;rounded=0;orthogonalLoop=1;jettySize=auto;html=1;entryX=0.5;entryY=0;entryDx=0;entryDy=0;" edge="1" parent="1" source="z2dRrkCkyLfMmBdKckfR-151" target="z2dRrkCkyLfMmBdKckfR-153">
          <mxGeometry relative="1" as="geometry">
            <Array as="points">
              <mxPoint x="120" y="2650" />
            </Array>
          </mxGeometry>
        </mxCell>
        <mxCell id="z2dRrkCkyLfMmBdKckfR-148" value="True" style="edgeLabel;html=1;align=center;verticalAlign=middle;resizable=0;points=[];" vertex="1" connectable="0" parent="z2dRrkCkyLfMmBdKckfR-147">
          <mxGeometry x="-0.6278" relative="1" as="geometry">
            <mxPoint as="offset" />
          </mxGeometry>
        </mxCell>
        <mxCell id="z2dRrkCkyLfMmBdKckfR-149" style="edgeStyle=orthogonalEdgeStyle;rounded=0;orthogonalLoop=1;jettySize=auto;html=1;" edge="1" parent="1" source="z2dRrkCkyLfMmBdKckfR-151">
          <mxGeometry relative="1" as="geometry">
            <mxPoint x="240" y="2730" as="targetPoint" />
          </mxGeometry>
        </mxCell>
        <mxCell id="z2dRrkCkyLfMmBdKckfR-150" value="False" style="edgeLabel;html=1;align=center;verticalAlign=middle;resizable=0;points=[];" vertex="1" connectable="0" parent="z2dRrkCkyLfMmBdKckfR-149">
          <mxGeometry x="0.3524" relative="1" as="geometry">
            <mxPoint y="-37" as="offset" />
          </mxGeometry>
        </mxCell>
        <mxCell id="z2dRrkCkyLfMmBdKckfR-151" value="x1 % x5 == 0" style="rhombus;whiteSpace=wrap;html=1;" vertex="1" parent="1">
          <mxGeometry x="160" y="2610" width="160" height="80" as="geometry" />
        </mxCell>
        <mxCell id="z2dRrkCkyLfMmBdKckfR-152" style="edgeStyle=orthogonalEdgeStyle;rounded=0;orthogonalLoop=1;jettySize=auto;html=1;" edge="1" parent="1" source="z2dRrkCkyLfMmBdKckfR-153">
          <mxGeometry relative="1" as="geometry">
            <mxPoint x="240" y="2710" as="targetPoint" />
          </mxGeometry>
        </mxCell>
        <mxCell id="z2dRrkCkyLfMmBdKckfR-153" value="count + 1" style="rounded=0;whiteSpace=wrap;html=1;" vertex="1" parent="1">
          <mxGeometry x="80" y="2690" width="80" height="40" as="geometry" />
        </mxCell>
        <mxCell id="z2dRrkCkyLfMmBdKckfR-154" style="edgeStyle=orthogonalEdgeStyle;rounded=0;orthogonalLoop=1;jettySize=auto;html=1;entryX=0.5;entryY=0;entryDx=0;entryDy=0;" edge="1" parent="1" source="z2dRrkCkyLfMmBdKckfR-158" target="z2dRrkCkyLfMmBdKckfR-160">
          <mxGeometry relative="1" as="geometry">
            <Array as="points">
              <mxPoint x="120" y="2770" />
            </Array>
          </mxGeometry>
        </mxCell>
        <mxCell id="z2dRrkCkyLfMmBdKckfR-155" value="True" style="edgeLabel;html=1;align=center;verticalAlign=middle;resizable=0;points=[];" vertex="1" connectable="0" parent="z2dRrkCkyLfMmBdKckfR-154">
          <mxGeometry x="-0.6278" relative="1" as="geometry">
            <mxPoint as="offset" />
          </mxGeometry>
        </mxCell>
        <mxCell id="z2dRrkCkyLfMmBdKckfR-156" style="edgeStyle=orthogonalEdgeStyle;rounded=0;orthogonalLoop=1;jettySize=auto;html=1;" edge="1" parent="1" source="z2dRrkCkyLfMmBdKckfR-158">
          <mxGeometry relative="1" as="geometry">
            <mxPoint x="240" y="2850" as="targetPoint" />
          </mxGeometry>
        </mxCell>
        <mxCell id="z2dRrkCkyLfMmBdKckfR-157" value="False" style="edgeLabel;html=1;align=center;verticalAlign=middle;resizable=0;points=[];" vertex="1" connectable="0" parent="z2dRrkCkyLfMmBdKckfR-156">
          <mxGeometry x="0.3524" relative="1" as="geometry">
            <mxPoint y="-37" as="offset" />
          </mxGeometry>
        </mxCell>
        <mxCell id="z2dRrkCkyLfMmBdKckfR-158" value="x2 % x5 == 0" style="rhombus;whiteSpace=wrap;html=1;" vertex="1" parent="1">
          <mxGeometry x="160" y="2730" width="160" height="80" as="geometry" />
        </mxCell>
        <mxCell id="z2dRrkCkyLfMmBdKckfR-159" style="edgeStyle=orthogonalEdgeStyle;rounded=0;orthogonalLoop=1;jettySize=auto;html=1;" edge="1" parent="1" source="z2dRrkCkyLfMmBdKckfR-160">
          <mxGeometry relative="1" as="geometry">
            <mxPoint x="240" y="2830" as="targetPoint" />
          </mxGeometry>
        </mxCell>
        <mxCell id="z2dRrkCkyLfMmBdKckfR-160" value="count + 1" style="rounded=0;whiteSpace=wrap;html=1;" vertex="1" parent="1">
          <mxGeometry x="80" y="2810" width="80" height="40" as="geometry" />
        </mxCell>
        <mxCell id="z2dRrkCkyLfMmBdKckfR-161" style="edgeStyle=orthogonalEdgeStyle;rounded=0;orthogonalLoop=1;jettySize=auto;html=1;entryX=0.5;entryY=0;entryDx=0;entryDy=0;" edge="1" parent="1" source="z2dRrkCkyLfMmBdKckfR-165" target="z2dRrkCkyLfMmBdKckfR-167">
          <mxGeometry relative="1" as="geometry">
            <Array as="points">
              <mxPoint x="120" y="2890" />
            </Array>
          </mxGeometry>
        </mxCell>
        <mxCell id="z2dRrkCkyLfMmBdKckfR-162" value="True" style="edgeLabel;html=1;align=center;verticalAlign=middle;resizable=0;points=[];" vertex="1" connectable="0" parent="z2dRrkCkyLfMmBdKckfR-161">
          <mxGeometry x="-0.6278" relative="1" as="geometry">
            <mxPoint as="offset" />
          </mxGeometry>
        </mxCell>
        <mxCell id="z2dRrkCkyLfMmBdKckfR-163" style="edgeStyle=orthogonalEdgeStyle;rounded=0;orthogonalLoop=1;jettySize=auto;html=1;" edge="1" parent="1" source="z2dRrkCkyLfMmBdKckfR-165">
          <mxGeometry relative="1" as="geometry">
            <mxPoint x="240" y="2970" as="targetPoint" />
          </mxGeometry>
        </mxCell>
        <mxCell id="z2dRrkCkyLfMmBdKckfR-164" value="False" style="edgeLabel;html=1;align=center;verticalAlign=middle;resizable=0;points=[];" vertex="1" connectable="0" parent="z2dRrkCkyLfMmBdKckfR-163">
          <mxGeometry x="0.3524" relative="1" as="geometry">
            <mxPoint y="-37" as="offset" />
          </mxGeometry>
        </mxCell>
        <mxCell id="z2dRrkCkyLfMmBdKckfR-165" value="x3 % x5 == 0" style="rhombus;whiteSpace=wrap;html=1;" vertex="1" parent="1">
          <mxGeometry x="160" y="2850" width="160" height="80" as="geometry" />
        </mxCell>
        <mxCell id="z2dRrkCkyLfMmBdKckfR-166" style="edgeStyle=orthogonalEdgeStyle;rounded=0;orthogonalLoop=1;jettySize=auto;html=1;" edge="1" parent="1" source="z2dRrkCkyLfMmBdKckfR-167">
          <mxGeometry relative="1" as="geometry">
            <mxPoint x="240" y="2950" as="targetPoint" />
          </mxGeometry>
        </mxCell>
        <mxCell id="z2dRrkCkyLfMmBdKckfR-167" value="count + 1" style="rounded=0;whiteSpace=wrap;html=1;" vertex="1" parent="1">
          <mxGeometry x="80" y="2930" width="80" height="40" as="geometry" />
        </mxCell>
        <mxCell id="z2dRrkCkyLfMmBdKckfR-168" style="edgeStyle=orthogonalEdgeStyle;rounded=0;orthogonalLoop=1;jettySize=auto;html=1;entryX=0.5;entryY=0;entryDx=0;entryDy=0;" edge="1" parent="1" source="z2dRrkCkyLfMmBdKckfR-172" target="z2dRrkCkyLfMmBdKckfR-174">
          <mxGeometry relative="1" as="geometry">
            <Array as="points">
              <mxPoint x="120" y="3010" />
            </Array>
          </mxGeometry>
        </mxCell>
        <mxCell id="z2dRrkCkyLfMmBdKckfR-169" value="True" style="edgeLabel;html=1;align=center;verticalAlign=middle;resizable=0;points=[];" vertex="1" connectable="0" parent="z2dRrkCkyLfMmBdKckfR-168">
          <mxGeometry x="-0.6278" relative="1" as="geometry">
            <mxPoint as="offset" />
          </mxGeometry>
        </mxCell>
        <mxCell id="z2dRrkCkyLfMmBdKckfR-170" style="edgeStyle=orthogonalEdgeStyle;rounded=0;orthogonalLoop=1;jettySize=auto;html=1;" edge="1" parent="1" source="z2dRrkCkyLfMmBdKckfR-172">
          <mxGeometry relative="1" as="geometry">
            <mxPoint x="400" y="3090" as="targetPoint" />
            <Array as="points">
              <mxPoint x="240" y="3090" />
            </Array>
          </mxGeometry>
        </mxCell>
        <mxCell id="z2dRrkCkyLfMmBdKckfR-171" value="False" style="edgeLabel;html=1;align=center;verticalAlign=middle;resizable=0;points=[];" vertex="1" connectable="0" parent="z2dRrkCkyLfMmBdKckfR-170">
          <mxGeometry x="0.3524" relative="1" as="geometry">
            <mxPoint x="-88" y="-30" as="offset" />
          </mxGeometry>
        </mxCell>
        <mxCell id="z2dRrkCkyLfMmBdKckfR-172" value="x4 % x5 == 0" style="rhombus;whiteSpace=wrap;html=1;" vertex="1" parent="1">
          <mxGeometry x="160" y="2970" width="160" height="80" as="geometry" />
        </mxCell>
        <mxCell id="z2dRrkCkyLfMmBdKckfR-173" style="edgeStyle=orthogonalEdgeStyle;rounded=0;orthogonalLoop=1;jettySize=auto;html=1;" edge="1" parent="1" source="z2dRrkCkyLfMmBdKckfR-174">
          <mxGeometry relative="1" as="geometry">
            <mxPoint x="240" y="3070" as="targetPoint" />
          </mxGeometry>
        </mxCell>
        <mxCell id="z2dRrkCkyLfMmBdKckfR-174" value="count + 1" style="rounded=0;whiteSpace=wrap;html=1;" vertex="1" parent="1">
          <mxGeometry x="80" y="3050" width="80" height="40" as="geometry" />
        </mxCell>
        <mxCell id="z2dRrkCkyLfMmBdKckfR-175" value="False" style="edgeLabel;html=1;align=center;verticalAlign=middle;resizable=0;points=[];" vertex="1" connectable="0" parent="1">
          <mxGeometry x="240" y="2940" as="geometry" />
        </mxCell>
        <mxCell id="z2dRrkCkyLfMmBdKckfR-176" value="False" style="edgeLabel;html=1;align=center;verticalAlign=middle;resizable=0;points=[];" vertex="1" connectable="0" parent="1">
          <mxGeometry x="240" y="2820" as="geometry" />
        </mxCell>
        <mxCell id="z2dRrkCkyLfMmBdKckfR-177" value="False" style="edgeLabel;html=1;align=center;verticalAlign=middle;resizable=0;points=[];" vertex="1" connectable="0" parent="1">
          <mxGeometry x="240" y="2700" as="geometry" />
        </mxCell>
        <mxCell id="OpRueWNHZmaN1lk58-pN-4" style="edgeStyle=orthogonalEdgeStyle;rounded=0;orthogonalLoop=1;jettySize=auto;html=1;entryX=0.5;entryY=0;entryDx=0;entryDy=0;" edge="1" parent="1" source="OpRueWNHZmaN1lk58-pN-2" target="OpRueWNHZmaN1lk58-pN-3">
          <mxGeometry relative="1" as="geometry" />
        </mxCell>
        <mxCell id="OpRueWNHZmaN1lk58-pN-2" value="count, чисел є дільниками інших чисел" style="shape=parallelogram;perimeter=parallelogramPerimeter;whiteSpace=wrap;html=1;fixedSize=1;" vertex="1" parent="1">
          <mxGeometry x="310" y="3120" width="180" height="70" as="geometry" />
        </mxCell>
        <mxCell id="OpRueWNHZmaN1lk58-pN-3" value="Кінець" style="ellipse;whiteSpace=wrap;html=1;" vertex="1" parent="1">
          <mxGeometry x="340" y="3220" width="120" height="40" as="geometry" />
        </mxCell>
      </root>
    </mxGraphModel>
  </diagram>
  <diagram id="BdlIQdln45noBWMW9q78" name="s3">
    <mxGraphModel dx="1307" dy="1837" grid="1" gridSize="10" guides="1" tooltips="1" connect="1" arrows="1" fold="1" page="1" pageScale="1" pageWidth="827" pageHeight="1169" math="0" shadow="0">
      <root>
        <mxCell id="0" />
        <mxCell id="1" parent="0" />
        <mxCell id="1eoz13Qvvwu8GMdHT8ME-1" style="edgeStyle=orthogonalEdgeStyle;rounded=0;orthogonalLoop=1;jettySize=auto;html=1;entryX=0.5;entryY=0;entryDx=0;entryDy=0;" edge="1" parent="1" source="1eoz13Qvvwu8GMdHT8ME-2" target="1eoz13Qvvwu8GMdHT8ME-3">
          <mxGeometry relative="1" as="geometry" />
        </mxCell>
        <mxCell id="1eoz13Qvvwu8GMdHT8ME-2" value="Початок" style="ellipse;whiteSpace=wrap;html=1;" vertex="1" parent="1">
          <mxGeometry x="354" width="120" height="40" as="geometry" />
        </mxCell>
        <mxCell id="1eoz13Qvvwu8GMdHT8ME-5" value="" style="edgeStyle=orthogonalEdgeStyle;rounded=0;orthogonalLoop=1;jettySize=auto;html=1;" edge="1" parent="1" source="1eoz13Qvvwu8GMdHT8ME-3" target="1eoz13Qvvwu8GMdHT8ME-4">
          <mxGeometry relative="1" as="geometry" />
        </mxCell>
        <mxCell id="1eoz13Qvvwu8GMdHT8ME-3" value="A, B" style="shape=parallelogram;perimeter=parallelogramPerimeter;whiteSpace=wrap;html=1;fixedSize=1;" vertex="1" parent="1">
          <mxGeometry x="324" y="60" width="180" height="40" as="geometry" />
        </mxCell>
        <mxCell id="1eoz13Qvvwu8GMdHT8ME-7" value="" style="edgeStyle=orthogonalEdgeStyle;rounded=0;orthogonalLoop=1;jettySize=auto;html=1;" edge="1" parent="1" source="1eoz13Qvvwu8GMdHT8ME-4" target="1eoz13Qvvwu8GMdHT8ME-6">
          <mxGeometry relative="1" as="geometry" />
        </mxCell>
        <mxCell id="1eoz13Qvvwu8GMdHT8ME-4" value="a_base = 0" style="rounded=0;whiteSpace=wrap;html=1;" vertex="1" parent="1">
          <mxGeometry x="354" y="120" width="120" height="30" as="geometry" />
        </mxCell>
        <mxCell id="1eoz13Qvvwu8GMdHT8ME-9" value="" style="edgeStyle=orthogonalEdgeStyle;rounded=0;orthogonalLoop=1;jettySize=auto;html=1;entryX=0.5;entryY=0;entryDx=0;entryDy=0;" edge="1" parent="1" source="1eoz13Qvvwu8GMdHT8ME-6" target="1eoz13Qvvwu8GMdHT8ME-10">
          <mxGeometry relative="1" as="geometry">
            <mxPoint x="260" y="250" as="targetPoint" />
            <Array as="points">
              <mxPoint x="276" y="210" />
            </Array>
          </mxGeometry>
        </mxCell>
        <mxCell id="1eoz13Qvvwu8GMdHT8ME-11" value="True" style="edgeLabel;html=1;align=center;verticalAlign=middle;resizable=0;points=[];" vertex="1" connectable="0" parent="1eoz13Qvvwu8GMdHT8ME-9">
          <mxGeometry x="-0.6686" y="-1" relative="1" as="geometry">
            <mxPoint as="offset" />
          </mxGeometry>
        </mxCell>
        <mxCell id="1eoz13Qvvwu8GMdHT8ME-12" style="edgeStyle=orthogonalEdgeStyle;rounded=0;orthogonalLoop=1;jettySize=auto;html=1;" edge="1" parent="1" source="1eoz13Qvvwu8GMdHT8ME-6">
          <mxGeometry relative="1" as="geometry">
            <mxPoint x="414" y="310" as="targetPoint" />
          </mxGeometry>
        </mxCell>
        <mxCell id="1eoz13Qvvwu8GMdHT8ME-14" value="False" style="edgeLabel;html=1;align=center;verticalAlign=middle;resizable=0;points=[];" vertex="1" connectable="0" parent="1eoz13Qvvwu8GMdHT8ME-12">
          <mxGeometry x="-0.706" y="-1" relative="1" as="geometry">
            <mxPoint as="offset" />
          </mxGeometry>
        </mxCell>
        <mxCell id="1eoz13Qvvwu8GMdHT8ME-6" value="&quot;1&quot; in A" style="rhombus;whiteSpace=wrap;html=1;" vertex="1" parent="1">
          <mxGeometry x="336" y="170" width="156" height="80" as="geometry" />
        </mxCell>
        <mxCell id="1eoz13Qvvwu8GMdHT8ME-13" style="edgeStyle=orthogonalEdgeStyle;rounded=0;orthogonalLoop=1;jettySize=auto;html=1;" edge="1" parent="1" source="1eoz13Qvvwu8GMdHT8ME-10">
          <mxGeometry relative="1" as="geometry">
            <mxPoint x="410" y="295" as="targetPoint" />
          </mxGeometry>
        </mxCell>
        <mxCell id="1eoz13Qvvwu8GMdHT8ME-10" value="a_base = 2" style="rounded=0;whiteSpace=wrap;html=1;" vertex="1" parent="1">
          <mxGeometry x="216" y="280" width="120" height="30" as="geometry" />
        </mxCell>
        <mxCell id="1eoz13Qvvwu8GMdHT8ME-15" value="" style="edgeStyle=orthogonalEdgeStyle;rounded=0;orthogonalLoop=1;jettySize=auto;html=1;entryX=0.5;entryY=0;entryDx=0;entryDy=0;" edge="1" parent="1" source="1eoz13Qvvwu8GMdHT8ME-19" target="1eoz13Qvvwu8GMdHT8ME-21">
          <mxGeometry relative="1" as="geometry">
            <mxPoint x="260" y="390" as="targetPoint" />
            <Array as="points">
              <mxPoint x="276" y="350" />
            </Array>
          </mxGeometry>
        </mxCell>
        <mxCell id="1eoz13Qvvwu8GMdHT8ME-16" value="True" style="edgeLabel;html=1;align=center;verticalAlign=middle;resizable=0;points=[];" vertex="1" connectable="0" parent="1eoz13Qvvwu8GMdHT8ME-15">
          <mxGeometry x="-0.6686" y="-1" relative="1" as="geometry">
            <mxPoint as="offset" />
          </mxGeometry>
        </mxCell>
        <mxCell id="1eoz13Qvvwu8GMdHT8ME-17" style="edgeStyle=orthogonalEdgeStyle;rounded=0;orthogonalLoop=1;jettySize=auto;html=1;" edge="1" parent="1" source="1eoz13Qvvwu8GMdHT8ME-19">
          <mxGeometry relative="1" as="geometry">
            <mxPoint x="414" y="450" as="targetPoint" />
          </mxGeometry>
        </mxCell>
        <mxCell id="1eoz13Qvvwu8GMdHT8ME-18" value="False" style="edgeLabel;html=1;align=center;verticalAlign=middle;resizable=0;points=[];" vertex="1" connectable="0" parent="1eoz13Qvvwu8GMdHT8ME-17">
          <mxGeometry x="-0.706" y="-1" relative="1" as="geometry">
            <mxPoint as="offset" />
          </mxGeometry>
        </mxCell>
        <mxCell id="1eoz13Qvvwu8GMdHT8ME-19" value="&quot;2&quot; in A" style="rhombus;whiteSpace=wrap;html=1;" vertex="1" parent="1">
          <mxGeometry x="336" y="310" width="156" height="80" as="geometry" />
        </mxCell>
        <mxCell id="1eoz13Qvvwu8GMdHT8ME-20" style="edgeStyle=orthogonalEdgeStyle;rounded=0;orthogonalLoop=1;jettySize=auto;html=1;" edge="1" parent="1" source="1eoz13Qvvwu8GMdHT8ME-21">
          <mxGeometry relative="1" as="geometry">
            <mxPoint x="410" y="435" as="targetPoint" />
          </mxGeometry>
        </mxCell>
        <mxCell id="1eoz13Qvvwu8GMdHT8ME-21" value="a_base = 3" style="rounded=0;whiteSpace=wrap;html=1;" vertex="1" parent="1">
          <mxGeometry x="216" y="420" width="120" height="30" as="geometry" />
        </mxCell>
        <mxCell id="1eoz13Qvvwu8GMdHT8ME-22" value="" style="edgeStyle=orthogonalEdgeStyle;rounded=0;orthogonalLoop=1;jettySize=auto;html=1;entryX=0.5;entryY=0;entryDx=0;entryDy=0;" edge="1" parent="1" source="1eoz13Qvvwu8GMdHT8ME-26" target="1eoz13Qvvwu8GMdHT8ME-28">
          <mxGeometry relative="1" as="geometry">
            <mxPoint x="260" y="530" as="targetPoint" />
            <Array as="points">
              <mxPoint x="276" y="490" />
            </Array>
          </mxGeometry>
        </mxCell>
        <mxCell id="1eoz13Qvvwu8GMdHT8ME-23" value="True" style="edgeLabel;html=1;align=center;verticalAlign=middle;resizable=0;points=[];" vertex="1" connectable="0" parent="1eoz13Qvvwu8GMdHT8ME-22">
          <mxGeometry x="-0.6686" y="-1" relative="1" as="geometry">
            <mxPoint as="offset" />
          </mxGeometry>
        </mxCell>
        <mxCell id="1eoz13Qvvwu8GMdHT8ME-24" style="edgeStyle=orthogonalEdgeStyle;rounded=0;orthogonalLoop=1;jettySize=auto;html=1;" edge="1" parent="1" source="1eoz13Qvvwu8GMdHT8ME-26">
          <mxGeometry relative="1" as="geometry">
            <mxPoint x="414" y="590" as="targetPoint" />
          </mxGeometry>
        </mxCell>
        <mxCell id="1eoz13Qvvwu8GMdHT8ME-25" value="False" style="edgeLabel;html=1;align=center;verticalAlign=middle;resizable=0;points=[];" vertex="1" connectable="0" parent="1eoz13Qvvwu8GMdHT8ME-24">
          <mxGeometry x="-0.706" y="-1" relative="1" as="geometry">
            <mxPoint as="offset" />
          </mxGeometry>
        </mxCell>
        <mxCell id="1eoz13Qvvwu8GMdHT8ME-26" value="&quot;3&quot; in A" style="rhombus;whiteSpace=wrap;html=1;" vertex="1" parent="1">
          <mxGeometry x="336" y="450" width="156" height="80" as="geometry" />
        </mxCell>
        <mxCell id="1eoz13Qvvwu8GMdHT8ME-27" style="edgeStyle=orthogonalEdgeStyle;rounded=0;orthogonalLoop=1;jettySize=auto;html=1;" edge="1" parent="1" source="1eoz13Qvvwu8GMdHT8ME-28">
          <mxGeometry relative="1" as="geometry">
            <mxPoint x="410" y="575" as="targetPoint" />
          </mxGeometry>
        </mxCell>
        <mxCell id="1eoz13Qvvwu8GMdHT8ME-28" value="a_base = 4" style="rounded=0;whiteSpace=wrap;html=1;" vertex="1" parent="1">
          <mxGeometry x="216" y="560" width="120" height="30" as="geometry" />
        </mxCell>
        <mxCell id="1eoz13Qvvwu8GMdHT8ME-29" value="" style="edgeStyle=orthogonalEdgeStyle;rounded=0;orthogonalLoop=1;jettySize=auto;html=1;entryX=0.5;entryY=0;entryDx=0;entryDy=0;" edge="1" parent="1" source="1eoz13Qvvwu8GMdHT8ME-33" target="1eoz13Qvvwu8GMdHT8ME-35">
          <mxGeometry relative="1" as="geometry">
            <mxPoint x="260" y="670" as="targetPoint" />
            <Array as="points">
              <mxPoint x="276" y="630" />
            </Array>
          </mxGeometry>
        </mxCell>
        <mxCell id="1eoz13Qvvwu8GMdHT8ME-30" value="True" style="edgeLabel;html=1;align=center;verticalAlign=middle;resizable=0;points=[];" vertex="1" connectable="0" parent="1eoz13Qvvwu8GMdHT8ME-29">
          <mxGeometry x="-0.6686" y="-1" relative="1" as="geometry">
            <mxPoint as="offset" />
          </mxGeometry>
        </mxCell>
        <mxCell id="1eoz13Qvvwu8GMdHT8ME-31" style="edgeStyle=orthogonalEdgeStyle;rounded=0;orthogonalLoop=1;jettySize=auto;html=1;" edge="1" parent="1" source="1eoz13Qvvwu8GMdHT8ME-33">
          <mxGeometry relative="1" as="geometry">
            <mxPoint x="414" y="730" as="targetPoint" />
          </mxGeometry>
        </mxCell>
        <mxCell id="1eoz13Qvvwu8GMdHT8ME-32" value="False" style="edgeLabel;html=1;align=center;verticalAlign=middle;resizable=0;points=[];" vertex="1" connectable="0" parent="1eoz13Qvvwu8GMdHT8ME-31">
          <mxGeometry x="-0.706" y="-1" relative="1" as="geometry">
            <mxPoint as="offset" />
          </mxGeometry>
        </mxCell>
        <mxCell id="1eoz13Qvvwu8GMdHT8ME-33" value="&quot;4&quot; in A" style="rhombus;whiteSpace=wrap;html=1;" vertex="1" parent="1">
          <mxGeometry x="336" y="590" width="156" height="80" as="geometry" />
        </mxCell>
        <mxCell id="1eoz13Qvvwu8GMdHT8ME-34" style="edgeStyle=orthogonalEdgeStyle;rounded=0;orthogonalLoop=1;jettySize=auto;html=1;" edge="1" parent="1" source="1eoz13Qvvwu8GMdHT8ME-35">
          <mxGeometry relative="1" as="geometry">
            <mxPoint x="410" y="715" as="targetPoint" />
          </mxGeometry>
        </mxCell>
        <mxCell id="1eoz13Qvvwu8GMdHT8ME-35" value="a_base = 5" style="rounded=0;whiteSpace=wrap;html=1;" vertex="1" parent="1">
          <mxGeometry x="216" y="700" width="120" height="30" as="geometry" />
        </mxCell>
        <mxCell id="1eoz13Qvvwu8GMdHT8ME-36" value="" style="edgeStyle=orthogonalEdgeStyle;rounded=0;orthogonalLoop=1;jettySize=auto;html=1;entryX=0.5;entryY=0;entryDx=0;entryDy=0;" edge="1" parent="1" source="1eoz13Qvvwu8GMdHT8ME-40" target="1eoz13Qvvwu8GMdHT8ME-42">
          <mxGeometry relative="1" as="geometry">
            <mxPoint x="260" y="810" as="targetPoint" />
            <Array as="points">
              <mxPoint x="276" y="770" />
            </Array>
          </mxGeometry>
        </mxCell>
        <mxCell id="1eoz13Qvvwu8GMdHT8ME-37" value="True" style="edgeLabel;html=1;align=center;verticalAlign=middle;resizable=0;points=[];" vertex="1" connectable="0" parent="1eoz13Qvvwu8GMdHT8ME-36">
          <mxGeometry x="-0.6686" y="-1" relative="1" as="geometry">
            <mxPoint as="offset" />
          </mxGeometry>
        </mxCell>
        <mxCell id="1eoz13Qvvwu8GMdHT8ME-38" style="edgeStyle=orthogonalEdgeStyle;rounded=0;orthogonalLoop=1;jettySize=auto;html=1;" edge="1" parent="1" source="1eoz13Qvvwu8GMdHT8ME-40">
          <mxGeometry relative="1" as="geometry">
            <mxPoint x="414" y="870" as="targetPoint" />
          </mxGeometry>
        </mxCell>
        <mxCell id="1eoz13Qvvwu8GMdHT8ME-39" value="False" style="edgeLabel;html=1;align=center;verticalAlign=middle;resizable=0;points=[];" vertex="1" connectable="0" parent="1eoz13Qvvwu8GMdHT8ME-38">
          <mxGeometry x="-0.706" y="-1" relative="1" as="geometry">
            <mxPoint as="offset" />
          </mxGeometry>
        </mxCell>
        <mxCell id="1eoz13Qvvwu8GMdHT8ME-40" value="&quot;5&quot; in A" style="rhombus;whiteSpace=wrap;html=1;" vertex="1" parent="1">
          <mxGeometry x="336" y="730" width="156" height="80" as="geometry" />
        </mxCell>
        <mxCell id="1eoz13Qvvwu8GMdHT8ME-41" style="edgeStyle=orthogonalEdgeStyle;rounded=0;orthogonalLoop=1;jettySize=auto;html=1;" edge="1" parent="1" source="1eoz13Qvvwu8GMdHT8ME-42">
          <mxGeometry relative="1" as="geometry">
            <mxPoint x="410" y="855" as="targetPoint" />
          </mxGeometry>
        </mxCell>
        <mxCell id="1eoz13Qvvwu8GMdHT8ME-42" value="a_base = 6" style="rounded=0;whiteSpace=wrap;html=1;" vertex="1" parent="1">
          <mxGeometry x="216" y="840" width="120" height="30" as="geometry" />
        </mxCell>
        <mxCell id="1eoz13Qvvwu8GMdHT8ME-43" value="" style="edgeStyle=orthogonalEdgeStyle;rounded=0;orthogonalLoop=1;jettySize=auto;html=1;entryX=0.5;entryY=0;entryDx=0;entryDy=0;" edge="1" parent="1" source="1eoz13Qvvwu8GMdHT8ME-47" target="1eoz13Qvvwu8GMdHT8ME-49">
          <mxGeometry relative="1" as="geometry">
            <mxPoint x="260" y="950" as="targetPoint" />
            <Array as="points">
              <mxPoint x="276" y="910" />
            </Array>
          </mxGeometry>
        </mxCell>
        <mxCell id="1eoz13Qvvwu8GMdHT8ME-44" value="True" style="edgeLabel;html=1;align=center;verticalAlign=middle;resizable=0;points=[];" vertex="1" connectable="0" parent="1eoz13Qvvwu8GMdHT8ME-43">
          <mxGeometry x="-0.6686" y="-1" relative="1" as="geometry">
            <mxPoint as="offset" />
          </mxGeometry>
        </mxCell>
        <mxCell id="1eoz13Qvvwu8GMdHT8ME-45" style="edgeStyle=orthogonalEdgeStyle;rounded=0;orthogonalLoop=1;jettySize=auto;html=1;" edge="1" parent="1" source="1eoz13Qvvwu8GMdHT8ME-47">
          <mxGeometry relative="1" as="geometry">
            <mxPoint x="414" y="1010" as="targetPoint" />
          </mxGeometry>
        </mxCell>
        <mxCell id="1eoz13Qvvwu8GMdHT8ME-46" value="False" style="edgeLabel;html=1;align=center;verticalAlign=middle;resizable=0;points=[];" vertex="1" connectable="0" parent="1eoz13Qvvwu8GMdHT8ME-45">
          <mxGeometry x="-0.706" y="-1" relative="1" as="geometry">
            <mxPoint as="offset" />
          </mxGeometry>
        </mxCell>
        <mxCell id="1eoz13Qvvwu8GMdHT8ME-47" value="&quot;6&quot; in A" style="rhombus;whiteSpace=wrap;html=1;" vertex="1" parent="1">
          <mxGeometry x="336" y="870" width="156" height="80" as="geometry" />
        </mxCell>
        <mxCell id="1eoz13Qvvwu8GMdHT8ME-48" style="edgeStyle=orthogonalEdgeStyle;rounded=0;orthogonalLoop=1;jettySize=auto;html=1;" edge="1" parent="1" source="1eoz13Qvvwu8GMdHT8ME-49">
          <mxGeometry relative="1" as="geometry">
            <mxPoint x="410" y="995" as="targetPoint" />
          </mxGeometry>
        </mxCell>
        <mxCell id="1eoz13Qvvwu8GMdHT8ME-49" value="a_base = 7" style="rounded=0;whiteSpace=wrap;html=1;" vertex="1" parent="1">
          <mxGeometry x="216" y="980" width="120" height="30" as="geometry" />
        </mxCell>
        <mxCell id="1eoz13Qvvwu8GMdHT8ME-50" value="" style="edgeStyle=orthogonalEdgeStyle;rounded=0;orthogonalLoop=1;jettySize=auto;html=1;entryX=0.5;entryY=0;entryDx=0;entryDy=0;" edge="1" parent="1" source="1eoz13Qvvwu8GMdHT8ME-54" target="1eoz13Qvvwu8GMdHT8ME-56">
          <mxGeometry relative="1" as="geometry">
            <mxPoint x="260" y="1090" as="targetPoint" />
            <Array as="points">
              <mxPoint x="276" y="1050" />
            </Array>
          </mxGeometry>
        </mxCell>
        <mxCell id="1eoz13Qvvwu8GMdHT8ME-51" value="True" style="edgeLabel;html=1;align=center;verticalAlign=middle;resizable=0;points=[];" vertex="1" connectable="0" parent="1eoz13Qvvwu8GMdHT8ME-50">
          <mxGeometry x="-0.6686" y="-1" relative="1" as="geometry">
            <mxPoint as="offset" />
          </mxGeometry>
        </mxCell>
        <mxCell id="1eoz13Qvvwu8GMdHT8ME-52" style="edgeStyle=orthogonalEdgeStyle;rounded=0;orthogonalLoop=1;jettySize=auto;html=1;" edge="1" parent="1" source="1eoz13Qvvwu8GMdHT8ME-54">
          <mxGeometry relative="1" as="geometry">
            <mxPoint x="414" y="1150" as="targetPoint" />
          </mxGeometry>
        </mxCell>
        <mxCell id="1eoz13Qvvwu8GMdHT8ME-53" value="False" style="edgeLabel;html=1;align=center;verticalAlign=middle;resizable=0;points=[];" vertex="1" connectable="0" parent="1eoz13Qvvwu8GMdHT8ME-52">
          <mxGeometry x="-0.706" y="-1" relative="1" as="geometry">
            <mxPoint as="offset" />
          </mxGeometry>
        </mxCell>
        <mxCell id="1eoz13Qvvwu8GMdHT8ME-54" value="&quot;7&quot; in A" style="rhombus;whiteSpace=wrap;html=1;" vertex="1" parent="1">
          <mxGeometry x="336" y="1010" width="156" height="80" as="geometry" />
        </mxCell>
        <mxCell id="1eoz13Qvvwu8GMdHT8ME-55" style="edgeStyle=orthogonalEdgeStyle;rounded=0;orthogonalLoop=1;jettySize=auto;html=1;" edge="1" parent="1" source="1eoz13Qvvwu8GMdHT8ME-56">
          <mxGeometry relative="1" as="geometry">
            <mxPoint x="410" y="1135" as="targetPoint" />
          </mxGeometry>
        </mxCell>
        <mxCell id="1eoz13Qvvwu8GMdHT8ME-56" value="a_base = 8" style="rounded=0;whiteSpace=wrap;html=1;" vertex="1" parent="1">
          <mxGeometry x="216" y="1120" width="120" height="30" as="geometry" />
        </mxCell>
        <mxCell id="1eoz13Qvvwu8GMdHT8ME-57" value="" style="edgeStyle=orthogonalEdgeStyle;rounded=0;orthogonalLoop=1;jettySize=auto;html=1;entryX=0.5;entryY=0;entryDx=0;entryDy=0;" edge="1" parent="1" source="1eoz13Qvvwu8GMdHT8ME-61" target="1eoz13Qvvwu8GMdHT8ME-63">
          <mxGeometry relative="1" as="geometry">
            <mxPoint x="260" y="1230" as="targetPoint" />
            <Array as="points">
              <mxPoint x="276" y="1190" />
            </Array>
          </mxGeometry>
        </mxCell>
        <mxCell id="1eoz13Qvvwu8GMdHT8ME-58" value="True" style="edgeLabel;html=1;align=center;verticalAlign=middle;resizable=0;points=[];" vertex="1" connectable="0" parent="1eoz13Qvvwu8GMdHT8ME-57">
          <mxGeometry x="-0.6686" y="-1" relative="1" as="geometry">
            <mxPoint as="offset" />
          </mxGeometry>
        </mxCell>
        <mxCell id="1eoz13Qvvwu8GMdHT8ME-59" style="edgeStyle=orthogonalEdgeStyle;rounded=0;orthogonalLoop=1;jettySize=auto;html=1;" edge="1" parent="1" source="1eoz13Qvvwu8GMdHT8ME-61">
          <mxGeometry relative="1" as="geometry">
            <mxPoint x="414" y="1290" as="targetPoint" />
          </mxGeometry>
        </mxCell>
        <mxCell id="1eoz13Qvvwu8GMdHT8ME-60" value="False" style="edgeLabel;html=1;align=center;verticalAlign=middle;resizable=0;points=[];" vertex="1" connectable="0" parent="1eoz13Qvvwu8GMdHT8ME-59">
          <mxGeometry x="-0.706" y="-1" relative="1" as="geometry">
            <mxPoint as="offset" />
          </mxGeometry>
        </mxCell>
        <mxCell id="1eoz13Qvvwu8GMdHT8ME-61" value="&quot;8&quot; in A" style="rhombus;whiteSpace=wrap;html=1;" vertex="1" parent="1">
          <mxGeometry x="336" y="1150" width="156" height="80" as="geometry" />
        </mxCell>
        <mxCell id="1eoz13Qvvwu8GMdHT8ME-62" style="edgeStyle=orthogonalEdgeStyle;rounded=0;orthogonalLoop=1;jettySize=auto;html=1;" edge="1" parent="1" source="1eoz13Qvvwu8GMdHT8ME-63">
          <mxGeometry relative="1" as="geometry">
            <mxPoint x="410" y="1275" as="targetPoint" />
          </mxGeometry>
        </mxCell>
        <mxCell id="1eoz13Qvvwu8GMdHT8ME-63" value="a_base = 9" style="rounded=0;whiteSpace=wrap;html=1;" vertex="1" parent="1">
          <mxGeometry x="216" y="1260" width="120" height="30" as="geometry" />
        </mxCell>
        <mxCell id="1eoz13Qvvwu8GMdHT8ME-64" value="" style="edgeStyle=orthogonalEdgeStyle;rounded=0;orthogonalLoop=1;jettySize=auto;html=1;entryX=0.5;entryY=0;entryDx=0;entryDy=0;" edge="1" parent="1" source="1eoz13Qvvwu8GMdHT8ME-68" target="1eoz13Qvvwu8GMdHT8ME-70">
          <mxGeometry relative="1" as="geometry">
            <mxPoint x="260" y="1370" as="targetPoint" />
            <Array as="points">
              <mxPoint x="276" y="1330" />
            </Array>
          </mxGeometry>
        </mxCell>
        <mxCell id="1eoz13Qvvwu8GMdHT8ME-65" value="True" style="edgeLabel;html=1;align=center;verticalAlign=middle;resizable=0;points=[];" vertex="1" connectable="0" parent="1eoz13Qvvwu8GMdHT8ME-64">
          <mxGeometry x="-0.6686" y="-1" relative="1" as="geometry">
            <mxPoint as="offset" />
          </mxGeometry>
        </mxCell>
        <mxCell id="1eoz13Qvvwu8GMdHT8ME-66" style="edgeStyle=orthogonalEdgeStyle;rounded=0;orthogonalLoop=1;jettySize=auto;html=1;entryX=0.54;entryY=-0.035;entryDx=0;entryDy=0;entryPerimeter=0;" edge="1" parent="1" source="1eoz13Qvvwu8GMdHT8ME-68" target="1eoz13Qvvwu8GMdHT8ME-71">
          <mxGeometry relative="1" as="geometry">
            <mxPoint x="414" y="1430" as="targetPoint" />
          </mxGeometry>
        </mxCell>
        <mxCell id="1eoz13Qvvwu8GMdHT8ME-67" value="False" style="edgeLabel;html=1;align=center;verticalAlign=middle;resizable=0;points=[];" vertex="1" connectable="0" parent="1eoz13Qvvwu8GMdHT8ME-66">
          <mxGeometry x="-0.706" y="-1" relative="1" as="geometry">
            <mxPoint as="offset" />
          </mxGeometry>
        </mxCell>
        <mxCell id="1eoz13Qvvwu8GMdHT8ME-68" value="&quot;9&quot; in A" style="rhombus;whiteSpace=wrap;html=1;" vertex="1" parent="1">
          <mxGeometry x="336" y="1290" width="156" height="80" as="geometry" />
        </mxCell>
        <mxCell id="1eoz13Qvvwu8GMdHT8ME-69" style="edgeStyle=orthogonalEdgeStyle;rounded=0;orthogonalLoop=1;jettySize=auto;html=1;" edge="1" parent="1" source="1eoz13Qvvwu8GMdHT8ME-70">
          <mxGeometry relative="1" as="geometry">
            <mxPoint x="410" y="1415" as="targetPoint" />
          </mxGeometry>
        </mxCell>
        <mxCell id="1eoz13Qvvwu8GMdHT8ME-70" value="a_base = 10" style="rounded=0;whiteSpace=wrap;html=1;" vertex="1" parent="1">
          <mxGeometry x="216" y="1400" width="120" height="30" as="geometry" />
        </mxCell>
        <mxCell id="1eoz13Qvvwu8GMdHT8ME-138" style="edgeStyle=orthogonalEdgeStyle;rounded=0;orthogonalLoop=1;jettySize=auto;html=1;" edge="1" parent="1" source="1eoz13Qvvwu8GMdHT8ME-71" target="1eoz13Qvvwu8GMdHT8ME-73">
          <mxGeometry relative="1" as="geometry">
            <Array as="points">
              <mxPoint x="414" y="1540" />
              <mxPoint x="414" y="1540" />
            </Array>
          </mxGeometry>
        </mxCell>
        <mxCell id="1eoz13Qvvwu8GMdHT8ME-71" value="Мінімально можлива числення для числа А: a_base,&lt;div&gt;Число A в десятковій системі: int(A, a_base)&lt;/div&gt;" style="shape=parallelogram;perimeter=parallelogramPerimeter;whiteSpace=wrap;html=1;fixedSize=1;" vertex="1" parent="1">
          <mxGeometry x="160" y="1460" width="470" height="60" as="geometry" />
        </mxCell>
        <mxCell id="1eoz13Qvvwu8GMdHT8ME-72" value="" style="edgeStyle=orthogonalEdgeStyle;rounded=0;orthogonalLoop=1;jettySize=auto;html=1;" edge="1" parent="1" source="1eoz13Qvvwu8GMdHT8ME-73" target="1eoz13Qvvwu8GMdHT8ME-78">
          <mxGeometry relative="1" as="geometry" />
        </mxCell>
        <mxCell id="1eoz13Qvvwu8GMdHT8ME-73" value="b_base = 0" style="rounded=0;whiteSpace=wrap;html=1;" vertex="1" parent="1">
          <mxGeometry x="354" y="1550" width="120" height="30" as="geometry" />
        </mxCell>
        <mxCell id="1eoz13Qvvwu8GMdHT8ME-74" value="" style="edgeStyle=orthogonalEdgeStyle;rounded=0;orthogonalLoop=1;jettySize=auto;html=1;entryX=0.5;entryY=0;entryDx=0;entryDy=0;" edge="1" parent="1" source="1eoz13Qvvwu8GMdHT8ME-78" target="1eoz13Qvvwu8GMdHT8ME-80">
          <mxGeometry relative="1" as="geometry">
            <mxPoint x="260" y="1680" as="targetPoint" />
            <Array as="points">
              <mxPoint x="276" y="1640" />
            </Array>
          </mxGeometry>
        </mxCell>
        <mxCell id="1eoz13Qvvwu8GMdHT8ME-75" value="True" style="edgeLabel;html=1;align=center;verticalAlign=middle;resizable=0;points=[];" vertex="1" connectable="0" parent="1eoz13Qvvwu8GMdHT8ME-74">
          <mxGeometry x="-0.6686" y="-1" relative="1" as="geometry">
            <mxPoint as="offset" />
          </mxGeometry>
        </mxCell>
        <mxCell id="1eoz13Qvvwu8GMdHT8ME-76" style="edgeStyle=orthogonalEdgeStyle;rounded=0;orthogonalLoop=1;jettySize=auto;html=1;" edge="1" parent="1" source="1eoz13Qvvwu8GMdHT8ME-78">
          <mxGeometry relative="1" as="geometry">
            <mxPoint x="414" y="1740" as="targetPoint" />
          </mxGeometry>
        </mxCell>
        <mxCell id="1eoz13Qvvwu8GMdHT8ME-77" value="False" style="edgeLabel;html=1;align=center;verticalAlign=middle;resizable=0;points=[];" vertex="1" connectable="0" parent="1eoz13Qvvwu8GMdHT8ME-76">
          <mxGeometry x="-0.706" y="-1" relative="1" as="geometry">
            <mxPoint as="offset" />
          </mxGeometry>
        </mxCell>
        <mxCell id="1eoz13Qvvwu8GMdHT8ME-78" value="&quot;1&quot; in B" style="rhombus;whiteSpace=wrap;html=1;" vertex="1" parent="1">
          <mxGeometry x="336" y="1600" width="156" height="80" as="geometry" />
        </mxCell>
        <mxCell id="1eoz13Qvvwu8GMdHT8ME-79" style="edgeStyle=orthogonalEdgeStyle;rounded=0;orthogonalLoop=1;jettySize=auto;html=1;" edge="1" parent="1" source="1eoz13Qvvwu8GMdHT8ME-80">
          <mxGeometry relative="1" as="geometry">
            <mxPoint x="410" y="1725" as="targetPoint" />
          </mxGeometry>
        </mxCell>
        <mxCell id="1eoz13Qvvwu8GMdHT8ME-80" value="b_base&amp;nbsp;= 2" style="rounded=0;whiteSpace=wrap;html=1;" vertex="1" parent="1">
          <mxGeometry x="216" y="1710" width="120" height="30" as="geometry" />
        </mxCell>
        <mxCell id="1eoz13Qvvwu8GMdHT8ME-81" value="" style="edgeStyle=orthogonalEdgeStyle;rounded=0;orthogonalLoop=1;jettySize=auto;html=1;entryX=0.5;entryY=0;entryDx=0;entryDy=0;" edge="1" parent="1" source="1eoz13Qvvwu8GMdHT8ME-85" target="1eoz13Qvvwu8GMdHT8ME-87">
          <mxGeometry relative="1" as="geometry">
            <mxPoint x="260" y="1820" as="targetPoint" />
            <Array as="points">
              <mxPoint x="276" y="1780" />
            </Array>
          </mxGeometry>
        </mxCell>
        <mxCell id="1eoz13Qvvwu8GMdHT8ME-82" value="True" style="edgeLabel;html=1;align=center;verticalAlign=middle;resizable=0;points=[];" vertex="1" connectable="0" parent="1eoz13Qvvwu8GMdHT8ME-81">
          <mxGeometry x="-0.6686" y="-1" relative="1" as="geometry">
            <mxPoint as="offset" />
          </mxGeometry>
        </mxCell>
        <mxCell id="1eoz13Qvvwu8GMdHT8ME-83" style="edgeStyle=orthogonalEdgeStyle;rounded=0;orthogonalLoop=1;jettySize=auto;html=1;" edge="1" parent="1" source="1eoz13Qvvwu8GMdHT8ME-85">
          <mxGeometry relative="1" as="geometry">
            <mxPoint x="414" y="1880" as="targetPoint" />
          </mxGeometry>
        </mxCell>
        <mxCell id="1eoz13Qvvwu8GMdHT8ME-84" value="False" style="edgeLabel;html=1;align=center;verticalAlign=middle;resizable=0;points=[];" vertex="1" connectable="0" parent="1eoz13Qvvwu8GMdHT8ME-83">
          <mxGeometry x="-0.706" y="-1" relative="1" as="geometry">
            <mxPoint as="offset" />
          </mxGeometry>
        </mxCell>
        <mxCell id="1eoz13Qvvwu8GMdHT8ME-85" value="&quot;2&quot; in B" style="rhombus;whiteSpace=wrap;html=1;" vertex="1" parent="1">
          <mxGeometry x="336" y="1740" width="156" height="80" as="geometry" />
        </mxCell>
        <mxCell id="1eoz13Qvvwu8GMdHT8ME-86" style="edgeStyle=orthogonalEdgeStyle;rounded=0;orthogonalLoop=1;jettySize=auto;html=1;" edge="1" parent="1" source="1eoz13Qvvwu8GMdHT8ME-87">
          <mxGeometry relative="1" as="geometry">
            <mxPoint x="410" y="1865" as="targetPoint" />
          </mxGeometry>
        </mxCell>
        <mxCell id="1eoz13Qvvwu8GMdHT8ME-87" value="b_base&amp;nbsp;= 3" style="rounded=0;whiteSpace=wrap;html=1;" vertex="1" parent="1">
          <mxGeometry x="216" y="1850" width="120" height="30" as="geometry" />
        </mxCell>
        <mxCell id="1eoz13Qvvwu8GMdHT8ME-88" value="" style="edgeStyle=orthogonalEdgeStyle;rounded=0;orthogonalLoop=1;jettySize=auto;html=1;entryX=0.5;entryY=0;entryDx=0;entryDy=0;" edge="1" parent="1" source="1eoz13Qvvwu8GMdHT8ME-92" target="1eoz13Qvvwu8GMdHT8ME-94">
          <mxGeometry relative="1" as="geometry">
            <mxPoint x="260" y="1960" as="targetPoint" />
            <Array as="points">
              <mxPoint x="276" y="1920" />
            </Array>
          </mxGeometry>
        </mxCell>
        <mxCell id="1eoz13Qvvwu8GMdHT8ME-89" value="True" style="edgeLabel;html=1;align=center;verticalAlign=middle;resizable=0;points=[];" vertex="1" connectable="0" parent="1eoz13Qvvwu8GMdHT8ME-88">
          <mxGeometry x="-0.6686" y="-1" relative="1" as="geometry">
            <mxPoint as="offset" />
          </mxGeometry>
        </mxCell>
        <mxCell id="1eoz13Qvvwu8GMdHT8ME-90" style="edgeStyle=orthogonalEdgeStyle;rounded=0;orthogonalLoop=1;jettySize=auto;html=1;" edge="1" parent="1" source="1eoz13Qvvwu8GMdHT8ME-92">
          <mxGeometry relative="1" as="geometry">
            <mxPoint x="414" y="2020" as="targetPoint" />
          </mxGeometry>
        </mxCell>
        <mxCell id="1eoz13Qvvwu8GMdHT8ME-91" value="False" style="edgeLabel;html=1;align=center;verticalAlign=middle;resizable=0;points=[];" vertex="1" connectable="0" parent="1eoz13Qvvwu8GMdHT8ME-90">
          <mxGeometry x="-0.706" y="-1" relative="1" as="geometry">
            <mxPoint as="offset" />
          </mxGeometry>
        </mxCell>
        <mxCell id="1eoz13Qvvwu8GMdHT8ME-92" value="&quot;3&quot; in B" style="rhombus;whiteSpace=wrap;html=1;" vertex="1" parent="1">
          <mxGeometry x="336" y="1880" width="156" height="80" as="geometry" />
        </mxCell>
        <mxCell id="1eoz13Qvvwu8GMdHT8ME-93" style="edgeStyle=orthogonalEdgeStyle;rounded=0;orthogonalLoop=1;jettySize=auto;html=1;" edge="1" parent="1" source="1eoz13Qvvwu8GMdHT8ME-94">
          <mxGeometry relative="1" as="geometry">
            <mxPoint x="410" y="2005" as="targetPoint" />
          </mxGeometry>
        </mxCell>
        <mxCell id="1eoz13Qvvwu8GMdHT8ME-94" value="b_base&amp;nbsp;= 4" style="rounded=0;whiteSpace=wrap;html=1;" vertex="1" parent="1">
          <mxGeometry x="216" y="1990" width="120" height="30" as="geometry" />
        </mxCell>
        <mxCell id="1eoz13Qvvwu8GMdHT8ME-95" value="" style="edgeStyle=orthogonalEdgeStyle;rounded=0;orthogonalLoop=1;jettySize=auto;html=1;entryX=0.5;entryY=0;entryDx=0;entryDy=0;" edge="1" parent="1" source="1eoz13Qvvwu8GMdHT8ME-99" target="1eoz13Qvvwu8GMdHT8ME-101">
          <mxGeometry relative="1" as="geometry">
            <mxPoint x="260" y="2100" as="targetPoint" />
            <Array as="points">
              <mxPoint x="276" y="2060" />
            </Array>
          </mxGeometry>
        </mxCell>
        <mxCell id="1eoz13Qvvwu8GMdHT8ME-96" value="True" style="edgeLabel;html=1;align=center;verticalAlign=middle;resizable=0;points=[];" vertex="1" connectable="0" parent="1eoz13Qvvwu8GMdHT8ME-95">
          <mxGeometry x="-0.6686" y="-1" relative="1" as="geometry">
            <mxPoint as="offset" />
          </mxGeometry>
        </mxCell>
        <mxCell id="1eoz13Qvvwu8GMdHT8ME-97" style="edgeStyle=orthogonalEdgeStyle;rounded=0;orthogonalLoop=1;jettySize=auto;html=1;" edge="1" parent="1" source="1eoz13Qvvwu8GMdHT8ME-99">
          <mxGeometry relative="1" as="geometry">
            <mxPoint x="414" y="2160" as="targetPoint" />
          </mxGeometry>
        </mxCell>
        <mxCell id="1eoz13Qvvwu8GMdHT8ME-98" value="False" style="edgeLabel;html=1;align=center;verticalAlign=middle;resizable=0;points=[];" vertex="1" connectable="0" parent="1eoz13Qvvwu8GMdHT8ME-97">
          <mxGeometry x="-0.706" y="-1" relative="1" as="geometry">
            <mxPoint as="offset" />
          </mxGeometry>
        </mxCell>
        <mxCell id="1eoz13Qvvwu8GMdHT8ME-99" value="&quot;4&quot; in B" style="rhombus;whiteSpace=wrap;html=1;" vertex="1" parent="1">
          <mxGeometry x="336" y="2020" width="156" height="80" as="geometry" />
        </mxCell>
        <mxCell id="1eoz13Qvvwu8GMdHT8ME-100" style="edgeStyle=orthogonalEdgeStyle;rounded=0;orthogonalLoop=1;jettySize=auto;html=1;" edge="1" parent="1" source="1eoz13Qvvwu8GMdHT8ME-101">
          <mxGeometry relative="1" as="geometry">
            <mxPoint x="410" y="2145" as="targetPoint" />
          </mxGeometry>
        </mxCell>
        <mxCell id="1eoz13Qvvwu8GMdHT8ME-101" value="b_base&amp;nbsp;= 5" style="rounded=0;whiteSpace=wrap;html=1;" vertex="1" parent="1">
          <mxGeometry x="216" y="2130" width="120" height="30" as="geometry" />
        </mxCell>
        <mxCell id="1eoz13Qvvwu8GMdHT8ME-102" value="" style="edgeStyle=orthogonalEdgeStyle;rounded=0;orthogonalLoop=1;jettySize=auto;html=1;entryX=0.5;entryY=0;entryDx=0;entryDy=0;" edge="1" parent="1" source="1eoz13Qvvwu8GMdHT8ME-106" target="1eoz13Qvvwu8GMdHT8ME-108">
          <mxGeometry relative="1" as="geometry">
            <mxPoint x="260" y="2240" as="targetPoint" />
            <Array as="points">
              <mxPoint x="276" y="2200" />
            </Array>
          </mxGeometry>
        </mxCell>
        <mxCell id="1eoz13Qvvwu8GMdHT8ME-103" value="True" style="edgeLabel;html=1;align=center;verticalAlign=middle;resizable=0;points=[];" vertex="1" connectable="0" parent="1eoz13Qvvwu8GMdHT8ME-102">
          <mxGeometry x="-0.6686" y="-1" relative="1" as="geometry">
            <mxPoint as="offset" />
          </mxGeometry>
        </mxCell>
        <mxCell id="1eoz13Qvvwu8GMdHT8ME-104" style="edgeStyle=orthogonalEdgeStyle;rounded=0;orthogonalLoop=1;jettySize=auto;html=1;" edge="1" parent="1" source="1eoz13Qvvwu8GMdHT8ME-106">
          <mxGeometry relative="1" as="geometry">
            <mxPoint x="414" y="2300" as="targetPoint" />
          </mxGeometry>
        </mxCell>
        <mxCell id="1eoz13Qvvwu8GMdHT8ME-105" value="False" style="edgeLabel;html=1;align=center;verticalAlign=middle;resizable=0;points=[];" vertex="1" connectable="0" parent="1eoz13Qvvwu8GMdHT8ME-104">
          <mxGeometry x="-0.706" y="-1" relative="1" as="geometry">
            <mxPoint as="offset" />
          </mxGeometry>
        </mxCell>
        <mxCell id="1eoz13Qvvwu8GMdHT8ME-106" value="&quot;5&quot; in B" style="rhombus;whiteSpace=wrap;html=1;" vertex="1" parent="1">
          <mxGeometry x="336" y="2160" width="156" height="80" as="geometry" />
        </mxCell>
        <mxCell id="1eoz13Qvvwu8GMdHT8ME-107" style="edgeStyle=orthogonalEdgeStyle;rounded=0;orthogonalLoop=1;jettySize=auto;html=1;" edge="1" parent="1" source="1eoz13Qvvwu8GMdHT8ME-108">
          <mxGeometry relative="1" as="geometry">
            <mxPoint x="410" y="2285" as="targetPoint" />
          </mxGeometry>
        </mxCell>
        <mxCell id="1eoz13Qvvwu8GMdHT8ME-108" value="b_base&amp;nbsp;= 6" style="rounded=0;whiteSpace=wrap;html=1;" vertex="1" parent="1">
          <mxGeometry x="216" y="2270" width="120" height="30" as="geometry" />
        </mxCell>
        <mxCell id="1eoz13Qvvwu8GMdHT8ME-109" value="" style="edgeStyle=orthogonalEdgeStyle;rounded=0;orthogonalLoop=1;jettySize=auto;html=1;entryX=0.5;entryY=0;entryDx=0;entryDy=0;" edge="1" parent="1" source="1eoz13Qvvwu8GMdHT8ME-113" target="1eoz13Qvvwu8GMdHT8ME-115">
          <mxGeometry relative="1" as="geometry">
            <mxPoint x="260" y="2380" as="targetPoint" />
            <Array as="points">
              <mxPoint x="276" y="2340" />
            </Array>
          </mxGeometry>
        </mxCell>
        <mxCell id="1eoz13Qvvwu8GMdHT8ME-110" value="True" style="edgeLabel;html=1;align=center;verticalAlign=middle;resizable=0;points=[];" vertex="1" connectable="0" parent="1eoz13Qvvwu8GMdHT8ME-109">
          <mxGeometry x="-0.6686" y="-1" relative="1" as="geometry">
            <mxPoint as="offset" />
          </mxGeometry>
        </mxCell>
        <mxCell id="1eoz13Qvvwu8GMdHT8ME-111" style="edgeStyle=orthogonalEdgeStyle;rounded=0;orthogonalLoop=1;jettySize=auto;html=1;" edge="1" parent="1" source="1eoz13Qvvwu8GMdHT8ME-113">
          <mxGeometry relative="1" as="geometry">
            <mxPoint x="414" y="2440" as="targetPoint" />
          </mxGeometry>
        </mxCell>
        <mxCell id="1eoz13Qvvwu8GMdHT8ME-112" value="False" style="edgeLabel;html=1;align=center;verticalAlign=middle;resizable=0;points=[];" vertex="1" connectable="0" parent="1eoz13Qvvwu8GMdHT8ME-111">
          <mxGeometry x="-0.706" y="-1" relative="1" as="geometry">
            <mxPoint as="offset" />
          </mxGeometry>
        </mxCell>
        <mxCell id="1eoz13Qvvwu8GMdHT8ME-113" value="&quot;6&quot; in B" style="rhombus;whiteSpace=wrap;html=1;" vertex="1" parent="1">
          <mxGeometry x="336" y="2300" width="156" height="80" as="geometry" />
        </mxCell>
        <mxCell id="1eoz13Qvvwu8GMdHT8ME-114" style="edgeStyle=orthogonalEdgeStyle;rounded=0;orthogonalLoop=1;jettySize=auto;html=1;" edge="1" parent="1" source="1eoz13Qvvwu8GMdHT8ME-115">
          <mxGeometry relative="1" as="geometry">
            <mxPoint x="410" y="2425" as="targetPoint" />
          </mxGeometry>
        </mxCell>
        <mxCell id="1eoz13Qvvwu8GMdHT8ME-115" value="b_base&amp;nbsp;= 7" style="rounded=0;whiteSpace=wrap;html=1;" vertex="1" parent="1">
          <mxGeometry x="216" y="2410" width="120" height="30" as="geometry" />
        </mxCell>
        <mxCell id="1eoz13Qvvwu8GMdHT8ME-116" value="" style="edgeStyle=orthogonalEdgeStyle;rounded=0;orthogonalLoop=1;jettySize=auto;html=1;entryX=0.5;entryY=0;entryDx=0;entryDy=0;" edge="1" parent="1" source="1eoz13Qvvwu8GMdHT8ME-120" target="1eoz13Qvvwu8GMdHT8ME-122">
          <mxGeometry relative="1" as="geometry">
            <mxPoint x="260" y="2520" as="targetPoint" />
            <Array as="points">
              <mxPoint x="276" y="2480" />
            </Array>
          </mxGeometry>
        </mxCell>
        <mxCell id="1eoz13Qvvwu8GMdHT8ME-117" value="True" style="edgeLabel;html=1;align=center;verticalAlign=middle;resizable=0;points=[];" vertex="1" connectable="0" parent="1eoz13Qvvwu8GMdHT8ME-116">
          <mxGeometry x="-0.6686" y="-1" relative="1" as="geometry">
            <mxPoint as="offset" />
          </mxGeometry>
        </mxCell>
        <mxCell id="1eoz13Qvvwu8GMdHT8ME-118" style="edgeStyle=orthogonalEdgeStyle;rounded=0;orthogonalLoop=1;jettySize=auto;html=1;" edge="1" parent="1" source="1eoz13Qvvwu8GMdHT8ME-120">
          <mxGeometry relative="1" as="geometry">
            <mxPoint x="414" y="2580" as="targetPoint" />
          </mxGeometry>
        </mxCell>
        <mxCell id="1eoz13Qvvwu8GMdHT8ME-119" value="False" style="edgeLabel;html=1;align=center;verticalAlign=middle;resizable=0;points=[];" vertex="1" connectable="0" parent="1eoz13Qvvwu8GMdHT8ME-118">
          <mxGeometry x="-0.706" y="-1" relative="1" as="geometry">
            <mxPoint as="offset" />
          </mxGeometry>
        </mxCell>
        <mxCell id="1eoz13Qvvwu8GMdHT8ME-120" value="&quot;7&quot; in B" style="rhombus;whiteSpace=wrap;html=1;" vertex="1" parent="1">
          <mxGeometry x="336" y="2440" width="156" height="80" as="geometry" />
        </mxCell>
        <mxCell id="1eoz13Qvvwu8GMdHT8ME-121" style="edgeStyle=orthogonalEdgeStyle;rounded=0;orthogonalLoop=1;jettySize=auto;html=1;" edge="1" parent="1" source="1eoz13Qvvwu8GMdHT8ME-122">
          <mxGeometry relative="1" as="geometry">
            <mxPoint x="410" y="2565" as="targetPoint" />
          </mxGeometry>
        </mxCell>
        <mxCell id="1eoz13Qvvwu8GMdHT8ME-122" value="b_base&amp;nbsp;= 8" style="rounded=0;whiteSpace=wrap;html=1;" vertex="1" parent="1">
          <mxGeometry x="216" y="2550" width="120" height="30" as="geometry" />
        </mxCell>
        <mxCell id="1eoz13Qvvwu8GMdHT8ME-123" value="" style="edgeStyle=orthogonalEdgeStyle;rounded=0;orthogonalLoop=1;jettySize=auto;html=1;entryX=0.5;entryY=0;entryDx=0;entryDy=0;" edge="1" parent="1" source="1eoz13Qvvwu8GMdHT8ME-127" target="1eoz13Qvvwu8GMdHT8ME-129">
          <mxGeometry relative="1" as="geometry">
            <mxPoint x="260" y="2660" as="targetPoint" />
            <Array as="points">
              <mxPoint x="276" y="2620" />
            </Array>
          </mxGeometry>
        </mxCell>
        <mxCell id="1eoz13Qvvwu8GMdHT8ME-124" value="True" style="edgeLabel;html=1;align=center;verticalAlign=middle;resizable=0;points=[];" vertex="1" connectable="0" parent="1eoz13Qvvwu8GMdHT8ME-123">
          <mxGeometry x="-0.6686" y="-1" relative="1" as="geometry">
            <mxPoint as="offset" />
          </mxGeometry>
        </mxCell>
        <mxCell id="1eoz13Qvvwu8GMdHT8ME-125" style="edgeStyle=orthogonalEdgeStyle;rounded=0;orthogonalLoop=1;jettySize=auto;html=1;" edge="1" parent="1" source="1eoz13Qvvwu8GMdHT8ME-127">
          <mxGeometry relative="1" as="geometry">
            <mxPoint x="414" y="2720" as="targetPoint" />
          </mxGeometry>
        </mxCell>
        <mxCell id="1eoz13Qvvwu8GMdHT8ME-126" value="False" style="edgeLabel;html=1;align=center;verticalAlign=middle;resizable=0;points=[];" vertex="1" connectable="0" parent="1eoz13Qvvwu8GMdHT8ME-125">
          <mxGeometry x="-0.706" y="-1" relative="1" as="geometry">
            <mxPoint as="offset" />
          </mxGeometry>
        </mxCell>
        <mxCell id="1eoz13Qvvwu8GMdHT8ME-127" value="&quot;8&quot; in B" style="rhombus;whiteSpace=wrap;html=1;" vertex="1" parent="1">
          <mxGeometry x="336" y="2580" width="156" height="80" as="geometry" />
        </mxCell>
        <mxCell id="1eoz13Qvvwu8GMdHT8ME-128" style="edgeStyle=orthogonalEdgeStyle;rounded=0;orthogonalLoop=1;jettySize=auto;html=1;" edge="1" parent="1" source="1eoz13Qvvwu8GMdHT8ME-129">
          <mxGeometry relative="1" as="geometry">
            <mxPoint x="410" y="2705" as="targetPoint" />
          </mxGeometry>
        </mxCell>
        <mxCell id="1eoz13Qvvwu8GMdHT8ME-129" value="b_base&amp;nbsp;= 9" style="rounded=0;whiteSpace=wrap;html=1;" vertex="1" parent="1">
          <mxGeometry x="216" y="2690" width="120" height="30" as="geometry" />
        </mxCell>
        <mxCell id="1eoz13Qvvwu8GMdHT8ME-130" value="" style="edgeStyle=orthogonalEdgeStyle;rounded=0;orthogonalLoop=1;jettySize=auto;html=1;entryX=0.5;entryY=0;entryDx=0;entryDy=0;" edge="1" parent="1" source="1eoz13Qvvwu8GMdHT8ME-134" target="1eoz13Qvvwu8GMdHT8ME-136">
          <mxGeometry relative="1" as="geometry">
            <mxPoint x="260" y="2800" as="targetPoint" />
            <Array as="points">
              <mxPoint x="276" y="2760" />
            </Array>
          </mxGeometry>
        </mxCell>
        <mxCell id="1eoz13Qvvwu8GMdHT8ME-131" value="True" style="edgeLabel;html=1;align=center;verticalAlign=middle;resizable=0;points=[];" vertex="1" connectable="0" parent="1eoz13Qvvwu8GMdHT8ME-130">
          <mxGeometry x="-0.6686" y="-1" relative="1" as="geometry">
            <mxPoint as="offset" />
          </mxGeometry>
        </mxCell>
        <mxCell id="1eoz13Qvvwu8GMdHT8ME-132" style="edgeStyle=orthogonalEdgeStyle;rounded=0;orthogonalLoop=1;jettySize=auto;html=1;entryX=0.54;entryY=-0.035;entryDx=0;entryDy=0;entryPerimeter=0;" edge="1" parent="1" source="1eoz13Qvvwu8GMdHT8ME-134" target="1eoz13Qvvwu8GMdHT8ME-137">
          <mxGeometry relative="1" as="geometry">
            <mxPoint x="414" y="2860" as="targetPoint" />
          </mxGeometry>
        </mxCell>
        <mxCell id="1eoz13Qvvwu8GMdHT8ME-133" value="False" style="edgeLabel;html=1;align=center;verticalAlign=middle;resizable=0;points=[];" vertex="1" connectable="0" parent="1eoz13Qvvwu8GMdHT8ME-132">
          <mxGeometry x="-0.706" y="-1" relative="1" as="geometry">
            <mxPoint as="offset" />
          </mxGeometry>
        </mxCell>
        <mxCell id="1eoz13Qvvwu8GMdHT8ME-134" value="&quot;9&quot; in B" style="rhombus;whiteSpace=wrap;html=1;" vertex="1" parent="1">
          <mxGeometry x="336" y="2720" width="156" height="80" as="geometry" />
        </mxCell>
        <mxCell id="1eoz13Qvvwu8GMdHT8ME-135" style="edgeStyle=orthogonalEdgeStyle;rounded=0;orthogonalLoop=1;jettySize=auto;html=1;" edge="1" parent="1" source="1eoz13Qvvwu8GMdHT8ME-136">
          <mxGeometry relative="1" as="geometry">
            <mxPoint x="410" y="2845" as="targetPoint" />
          </mxGeometry>
        </mxCell>
        <mxCell id="1eoz13Qvvwu8GMdHT8ME-136" value="b_base&amp;nbsp;= 10" style="rounded=0;whiteSpace=wrap;html=1;" vertex="1" parent="1">
          <mxGeometry x="216" y="2830" width="120" height="30" as="geometry" />
        </mxCell>
        <mxCell id="1eoz13Qvvwu8GMdHT8ME-141" style="edgeStyle=orthogonalEdgeStyle;rounded=0;orthogonalLoop=1;jettySize=auto;html=1;" edge="1" parent="1" source="1eoz13Qvvwu8GMdHT8ME-137">
          <mxGeometry relative="1" as="geometry">
            <mxPoint x="410" y="3000" as="targetPoint" />
            <Array as="points">
              <mxPoint x="410" y="3000" />
            </Array>
          </mxGeometry>
        </mxCell>
        <mxCell id="1eoz13Qvvwu8GMdHT8ME-137" value="Мінімально можлива числення для числа B: b_base,&lt;div&gt;Число B в десятковій системі: int(B, b_base)&lt;/div&gt;" style="shape=parallelogram;perimeter=parallelogramPerimeter;whiteSpace=wrap;html=1;fixedSize=1;" vertex="1" parent="1">
          <mxGeometry x="160" y="2890" width="470" height="60" as="geometry" />
        </mxCell>
        <mxCell id="1eoz13Qvvwu8GMdHT8ME-139" value="Кінець" style="ellipse;whiteSpace=wrap;html=1;" vertex="1" parent="1">
          <mxGeometry x="353" y="3000" width="120" height="40" as="geometry" />
        </mxCell>
      </root>
    </mxGraphModel>
  </diagram>
</mxfile>
